# Blender v2.59 (sub 0) OBJ File: 'catwalk.blend'
# www.blender.org
mtllib catwalk_pbox.mtl
o Cube.013_Cube.018
v 0.656705 -0.311048 -4.061824
v 0.656705 -0.311048 4.061824
v -0.656705 -0.311048 4.061823
v -0.656705 -0.311048 -4.061826
v 0.776901 -0.018188 -4.061823
v 0.776900 -0.018188 4.061827
v -0.776901 -0.018188 4.061823
v -0.776901 -0.018188 -4.061824
v 1.005848 -0.097778 4.061825
v 1.005848 -0.097778 -4.061823
v -1.005848 -0.097778 4.061823
v -1.005848 -0.097778 -4.061825
vt 0.312647 0.599391
vt 0.669146 0.401142
vt 0.546113 0.378551
vt 0.189614 0.576800
vt 0.320202 0.613965
vt 0.174650 0.587239
vt 0.531149 0.388991
vt 0.676701 0.415716
vt 0.342655 0.614504
vt 0.699154 0.416255
vt 0.510709 0.381654
vt 0.154210 0.579903
vn 0.000000 -1.000000 0.000000
vn 0.000000 1.000000 0.000000
vn 0.521281 -0.853385 0.000000
vn 0.328360 0.944553 0.000000
vn -0.000001 -0.000002 1.000000
vn -0.000002 -0.000009 1.000000
vn -0.521281 -0.853385 -0.000000
vn -0.328360 0.944553 -0.000000
vn 0.000001 0.000012 -1.000000
vn 0.000001 0.000002 -1.000000
usemtl Material.002_untitled.001
s off
f 1/1/1 2/2/1 3/3/1
f 1/1/1 3/3/1 4/4/1
f 5/5/2 8/6/2 7/7/2
f 5/5/2 7/7/2 6/8/2
f 1/1/3 10/9/3 9/10/3
f 1/1/3 9/10/3 2/2/3
f 10/9/4 5/5/4 6/8/4
f 10/9/4 6/8/4 9/10/4
f 2/2/5 9/10/5 11/11/5
f 2/2/5 11/11/5 3/3/5
f 9/10/6 6/8/6 7/7/6
f 9/10/6 7/7/6 11/11/6
f 3/3/7 11/11/7 12/12/7
f 3/3/7 12/12/7 4/4/7
f 11/11/8 7/7/8 8/6/8
f 11/11/8 8/6/8 12/12/8
f 5/5/9 10/9/9 12/12/9
f 5/5/9 12/12/9 8/6/9
f 10/9/10 1/1/10 4/4/10
f 10/9/10 4/4/10 12/12/10
