# Blender v2.59 (sub 0) OBJ File: 'floor_module.blend'
# www.blender.org
mtllib floor_module_pbox.mtl
o Cube.011_Cube.017
v 4.000000 0.400000 -4.000000
v 4.000000 0.400000 3.999999
v -4.000001 0.400000 3.999999
v -3.999999 0.400000 -4.000002
v 4.000002 1.000000 -3.999998
v 3.999997 1.000000 4.000002
v -4.000002 1.000000 3.999998
v -4.000000 1.000000 -4.000000
v -3.976624 -0.600000 3.976623
v -3.976622 -0.600000 -3.976625
v 3.976623 -0.600000 -3.976624
v 3.976623 -0.600000 3.976623
v 3.798396 -1.000000 3.798396
v 3.798396 -1.000000 -3.798397
v -3.798395 -1.000000 -3.798398
v -3.798397 -1.000000 3.798396
vt 0.607188 0.747410
vt 0.064975 0.583895
vt 0.410629 0.359655
vt 0.952841 0.523170
vt 0.608629 0.703883
vt 0.954283 0.479643
vt 0.412070 0.316128
vt 0.066417 0.540368
vt 0.071413 0.467645
vt 0.415046 0.244716
vt 0.610456 0.630205
vt 0.954090 0.407276
vt 0.420386 0.224337
vt 0.935270 0.379610
vt 0.607037 0.592548
vt 0.092153 0.437274
vn 0.577349 0.577349 -0.577319
vn -0.577349 0.577349 -0.577349
vn -0.577349 0.577319 0.577349
vn 0.577319 0.577349 0.577349
vn 0.706992 -0.016388 -0.706992
vn 0.706992 -0.016388 0.706992
vn -0.706992 -0.016388 0.706992
vn -0.706992 -0.016388 -0.706992
vn -0.681875 -0.264657 -0.681875
vn -0.681875 -0.264657 0.681875
vn 0.681875 -0.264657 -0.681875
vn 0.681875 -0.264657 0.681875
vn -0.441420 -0.781182 0.441420
vn 0.441420 -0.781182 0.441420
vn 0.441420 -0.781182 -0.441420
vn -0.441420 -0.781182 -0.441420
usemtl _untitled.001
s 1
f 5/1/1 8/2/2 7/3/3
f 5/1/1 7/3/3 6/4/4
f 1/5/5 5/1/1 6/4/4
f 1/5/5 6/4/4 2/6/6
f 2/6/6 6/4/4 7/3/3
f 2/6/6 7/3/3 3/7/7
f 3/7/7 7/3/3 8/2/2
f 3/7/7 8/2/2 4/8/8
f 5/1/1 1/5/5 4/8/8
f 5/1/1 4/8/8 8/2/2
f 3/7/7 4/8/8 10/9/9
f 3/7/7 10/9/9 9/10/10
f 4/8/8 1/5/5 11/11/11
f 4/8/8 11/11/11 10/9/9
f 1/5/5 2/6/6 12/12/12
f 1/5/5 12/12/12 11/11/11
f 2/6/6 3/7/7 9/10/10
f 2/6/6 9/10/10 12/12/12
f 12/12/12 9/10/10 16/13/13
f 12/12/12 16/13/13 13/14/14
f 11/11/11 12/12/12 13/14/14
f 11/11/11 13/14/14 14/15/15
f 10/9/9 11/11/11 14/15/15
f 10/9/9 14/15/15 15/16/16
f 9/10/10 10/9/9 15/16/16
f 9/10/10 15/16/16 16/13/13
f 14/15/15 13/14/14 16/13/13
f 14/15/15 16/13/13 15/16/16
