# Blender v2.59 (sub 0) OBJ File: 'handrail.blend'
# www.blender.org
mtllib handrail_pbox.mtl
o Cube.008_Cube.022
v 2.040772 -0.500000 -0.047760
v 2.040772 -0.500000 0.077064
v -2.040773 -0.500000 0.077064
v -2.040772 -0.500000 -0.047760
v 2.040773 0.452690 -0.073342
v 2.040771 0.500000 -0.018121
v -2.040773 0.500000 -0.018122
v -2.040772 0.452690 -0.073343
v 2.040771 0.298894 0.077064
v 2.040773 0.420522 -0.083681
v -2.040773 0.298894 0.077064
v -2.040772 0.420522 -0.083681
vt 0.926243 0.562185
vt 0.942753 0.548989
vt 0.089481 0.221198
vt 0.072971 0.234394
vt 0.910079 0.764166
vt 0.056807 0.436375
vt 0.063476 0.440433
vt 0.916748 0.768224
vt 0.909143 0.758530
vt 0.932036 0.716095
vt 0.078764 0.388304
vt 0.055871 0.430739
vn 0.000000 -1.000000 0.000000
vn 0.000000 0.759408 -0.650614
vn 1.000000 0.000000 0.000007
vn 1.000000 0.000008 0.000024
vn -0.000000 -0.000000 1.000000
vn -0.000000 0.427812 0.903868
vn -1.000000 -0.000001 -0.000009
vn -1.000000 -0.000005 -0.000012
vn 0.000000 0.305968 -0.952042
vn 0.000000 -0.038992 -0.999240
usemtl _untitled.001
s off
f 1/1/1 2/2/1 3/3/1
f 1/1/1 3/3/1 4/4/1
f 5/5/2 8/6/2 7/7/2
f 5/5/2 7/7/2 6/8/2
f 1/1/3 10/9/3 9/10/3
f 1/1/3 9/10/3 2/2/3
f 10/9/4 5/5/4 6/8/4
f 10/9/4 6/8/4 9/10/4
f 2/2/5 9/10/5 11/11/5
f 2/2/5 11/11/5 3/3/5
f 9/10/6 6/8/6 7/7/6
f 9/10/6 7/7/6 11/11/6
f 3/3/7 11/11/7 12/12/7
f 3/3/7 12/12/7 4/4/7
f 11/11/8 7/7/8 8/6/8
f 11/11/8 8/6/8 12/12/8
f 5/5/9 10/9/9 12/12/9
f 5/5/9 12/12/9 8/6/9
f 10/9/10 1/1/10 4/4/10
f 10/9/10 4/4/10 12/12/10
