# Blender v2.59 (sub 0) OBJ File: ''
# www.blender.org
mtllib lightcone.mtl
o Cone
v 2.000000 0.000000 -1.000000
v 2.000000 0.382684 -0.923879
v 2.000000 0.707107 -0.707106
v 2.000000 0.923879 -0.382683
v 2.000000 1.000000 0.000000
v 2.000000 0.923879 0.382684
v 2.000000 0.707107 0.707107
v 2.000000 0.382683 0.923880
v 2.000000 -0.000000 1.000000
v 2.000000 -0.382684 0.923880
v 2.000000 -0.707107 0.707107
v 2.000000 -0.923880 0.382684
v 2.000000 -1.000000 0.000000
v 2.000000 -0.923880 -0.382683
v 2.000000 -0.707107 -0.707107
v 2.000000 -0.382683 -0.923880
v 0.000000 0.000000 0.000000
v 2.000000 -0.000000 0.000000
vt 0.573154 0.486200
vt 0.513448 0.499145
vt 0.480149 0.766296
vt 0.616564 0.466757
vt 0.637070 0.443777
vt 0.631548 0.420757
vt 0.600841 0.401202
vt 0.549623 0.388090
vt 0.485691 0.383416
vt 0.418778 0.387893
vt 0.359072 0.400838
vt 0.315662 0.420281
vt 0.295157 0.443261
vt 0.300678 0.466281
vt 0.331386 0.485836
vt 0.382604 0.498948
vt 0.446536 0.503621
vt 0.466113 0.443519
vn -0.440299 0.175162 -0.880599
vn -0.440299 0.498820 -0.746536
vn -0.440299 0.746536 -0.498819
vn -0.440299 0.880599 -0.175162
vn -0.440299 0.880599 0.175162
vn -0.440300 0.746536 0.498819
vn -0.440300 0.498819 0.746536
vn -0.440300 0.175162 0.880599
vn -0.440300 -0.175162 0.880599
vn -0.440300 -0.498819 0.746536
vn -0.440300 -0.746535 0.498819
vn -0.440300 -0.880599 0.175162
vn -0.440300 -0.880599 -0.175162
vn -0.440299 -0.746535 -0.498820
vn -0.440299 -0.498819 -0.746536
vn -0.440299 -0.175161 -0.880599
vn 1.000000 -0.000000 0.000000
vn 1.000000 -0.000000 0.000001
vn 1.000000 -0.000001 0.000000
usemtl 
s off
f 2/1/1 1/2/1 17/3/1
f 17/3/2 3/4/2 2/1/2
f 17/3/3 4/5/3 3/4/3
f 17/3/4 5/6/4 4/5/4
f 17/3/5 6/7/5 5/6/5
f 17/3/6 7/8/6 6/7/6
f 17/3/7 8/9/7 7/8/7
f 17/3/8 9/10/8 8/9/8
f 17/3/9 10/11/9 9/10/9
f 17/3/10 11/12/10 10/11/10
f 17/3/11 12/13/11 11/12/11
f 17/3/12 13/14/12 12/13/12
f 17/3/13 14/15/13 13/14/13
f 17/3/14 15/16/14 14/15/14
f 17/3/15 16/17/15 15/16/15
f 17/3/16 1/2/16 16/17/16
f 18/18/17 1/2/17 2/1/17
f 18/18/17 2/1/17 3/4/17
f 18/18/17 3/4/17 4/5/17
f 18/18/18 4/5/18 5/6/18
f 18/18/17 5/6/17 6/7/17
f 18/18/17 6/7/17 7/8/17
f 18/18/17 7/8/17 8/9/17
f 18/18/17 8/9/17 9/10/17
f 18/18/17 9/10/17 10/11/17
f 18/18/17 10/11/17 11/12/17
f 18/18/17 11/12/17 12/13/17
f 18/18/17 12/13/17 13/14/17
f 18/18/17 13/14/17 14/15/17
f 18/18/17 14/15/17 15/16/17
f 18/18/17 15/16/17 16/17/17
f 16/17/19 1/2/19 18/18/19
