# Blender v2.59 (sub 0) OBJ File: 'metroid_low.blend'
# www.blender.org
mtllib metroid_cap.mtl
o Cube.002_Cube.001
v 0.192327 1.127038 0.415557
v 0.840115 0.030159 -0.301301
v -0.287264 1.183174 -0.129341
v 0.431074 1.028638 0.557317
v -0.000000 0.938010 -0.619251
v 1.017485 0.394842 -0.184740
v 0.059961 1.020038 0.726180
v -0.000000 0.373206 1.072607
v -0.960861 0.563225 0.246854
v -1.017485 0.394841 -0.184740
v 0.092516 0.114231 0.858984
v -0.385751 0.201248 0.962196
v -0.285033 1.156218 0.197292
v -0.636862 0.479874 0.828396
v -0.495382 0.981968 0.604430
v -0.264663 1.069022 0.562584
v 0.636862 0.479874 0.828396
v -0.513754 1.100018 0.188372
v 1.027615 0.579038 -0.178824
v 0.897332 0.776571 0.224700
v 0.681339 0.965365 0.378160
v -0.799041 0.549016 0.609314
v 0.810616 0.759516 0.463861
v -0.904098 0.380576 -0.498539
v 0.676216 0.183977 0.676649
v -0.558020 0.208681 0.848247
v 0.660550 0.747914 0.707764
v -0.810616 0.759516 0.463861
v 0.272605 0.551042 -0.782642
v -0.897332 0.776571 0.224699
v 0.747410 0.023698 -0.305448
v -0.660550 0.747914 0.707764
v -0.579030 0.012870 -0.541796
v -0.681339 0.965365 0.378160
v 0.907239 0.342554 0.306230
v -0.897365 0.086879 -0.388113
v 0.641826 0.119413 0.599154
v 0.799041 0.549017 0.609314
v -1.009947 0.416314 0.022806
v 0.715654 1.017616 -0.208334
v 0.000000 0.003898 -0.681033
v 0.854744 0.822821 -0.357158
v 0.285033 1.156218 0.197291
v 0.768116 0.380909 0.647125
v 0.265487 0.074610 -0.820223
v -0.932880 0.818240 -0.133303
v -0.768116 0.380910 0.647125
v -0.999817 0.552443 -0.338767
v -0.479119 0.386733 0.950373
v 0.513754 1.100019 0.188371
v 0.737942 1.012854 0.035637
v -0.079582 0.175929 1.016429
v 0.601395 0.103272 0.457998
v -0.907239 0.342555 0.306230
v 0.329993 0.444642 1.019598
v -0.413225 0.008333 -0.618172
v -0.840115 0.030159 -0.301301
v -0.251956 0.129519 0.836354
v 0.276835 0.134799 0.937338
v 0.169999 0.452175 1.061337
v 0.960861 0.563225 0.246855
v -0.779420 0.109887 0.317767
v 0.479119 0.386733 0.950373
v -0.329993 0.444641 1.019598
v 0.251956 0.129519 0.836354
v 0.896251 0.599556 -0.477285
v 0.531736 1.120668 -0.111589
v -0.531736 1.120668 -0.111589
v -0.855559 0.071515 -0.012041
v -0.214774 0.005151 -0.665003
v -0.161709 0.308216 1.052064
v -0.128764 0.118880 0.855308
v 0.254960 0.740837 0.967377
v -0.441209 1.104147 -0.327329
v 0.721404 0.035259 0.009936
v 0.855559 0.071515 -0.012041
v -0.747410 0.023698 -0.305448
v -0.641826 0.119413 0.599154
v 0.488510 0.637241 0.901851
v 0.473473 0.826257 0.811216
v 0.254521 0.932914 0.815969
v -0.254960 0.740838 0.967377
v -0.560243 0.842571 0.739295
v 0.772708 0.024668 -0.500733
v 0.363880 0.136483 0.795734
v -0.254522 0.932914 0.815969
v -0.000000 0.564725 -0.804176
v 0.579030 0.012870 -0.541796
v 0.458692 1.094927 -0.334187
v 0.907529 0.090994 -0.207985
v 0.999817 0.552443 -0.338767
v 0.349010 0.861881 -0.627610
v 0.301321 1.027230 -0.495379
v 0.636846 0.967645 -0.403195
v -0.276835 0.134800 0.937338
v -0.000000 0.844702 0.932375
v -0.854744 0.822821 -0.357158
v -0.907529 0.090994 -0.207985
v -0.737942 1.012854 0.035637
v 0.517161 0.200898 0.883483
v -0.715654 1.017616 -0.208334
v 0.242079 0.197764 1.008226
v 0.000000 0.121727 0.966806
v 0.532384 0.127794 0.621828
v -0.636846 0.967645 -0.403195
v -0.301322 1.027230 -0.495379
v -0.349009 0.861881 -0.627610
v -0.714598 0.664649 -0.589326
v 0.533552 0.533015 -0.717579
v -0.090939 0.601239 1.050038
v 0.750409 0.031102 -0.154401
v 0.827459 0.073455 -0.534721
v 0.267412 1.134282 -0.351893
v -0.488510 0.637241 0.901851
v 0.714598 0.664649 -0.589327
v 0.742977 0.412367 -0.631594
v -0.896251 0.599556 -0.477285
v 1.009947 0.416314 0.022806
v -0.742977 0.412368 -0.631594
v -0.676216 0.183977 0.676649
v -0.721404 0.035259 0.009936
v -0.533551 0.533015 -0.717579
v -0.459338 0.140326 0.726434
v 0.904098 0.380576 -0.498539
v -0.750409 0.031102 -0.154401
v -0.272605 0.551042 -0.782642
v -1.027615 0.579038 -0.178824
v 1.000301 0.673565 -0.035189
v 0.064464 1.204521 -0.096494
v 0.695866 0.018183 -0.437136
v 0.523214 0.144806 0.793251
v -0.000000 0.072380 -0.843832
v -1.000301 0.673566 -0.035188
v 0.554411 0.916253 0.654446
v -0.532384 0.127794 0.621828
v -0.495297 0.078465 -0.759669
v 0.779420 0.109887 0.317767
v 0.459338 0.140326 0.726434
v -0.827459 0.073455 -0.534721
v -0.363880 0.136483 0.795734
v -0.695866 0.018183 -0.437136
v 0.308555 1.179716 -0.110546
v -0.094065 1.142926 -0.381096
v -0.686153 0.076661 -0.666709
v 0.581379 0.018349 -0.667907
v -0.601395 0.103272 0.457998
v 0.495297 0.078465 -0.759669
v -0.772708 0.024668 -0.500733
v 0.932880 0.818240 -0.133303
v 0.242920 0.008990 -0.757042
v 0.686153 0.076661 -0.666709
v -0.523214 0.144806 0.793251
v 0.413225 0.008333 -0.618172
v -0.581379 0.018349 -0.667907
v -0.265487 0.074610 -0.820223
v 0.897365 0.086879 -0.388114
v 0.214774 0.005151 -0.665003
v -0.136094 0.007947 -0.773470
vt 0.326702 0.474819
vt 0.320211 0.407866
vt 0.371790 0.442073
vt 0.573770 0.103233
vt 0.458326 0.092939
vt 0.483630 0.062258
vt 0.448065 0.301174
vt 0.493163 0.271094
vt 0.504682 0.320271
vt 0.266402 0.705232
vt 0.210139 0.664433
vt 0.272682 0.583328
vt 0.441363 0.143667
vt 0.490064 0.156081
vt 0.803896 0.199803
vt 0.721935 0.130564
vt 0.812488 0.141260
vt 0.869943 0.229120
vt 0.506202 0.459790
vt 0.527149 0.376312
vt 0.541862 0.412719
vt 0.239653 0.505370
vt 0.233630 0.451388
vt 0.279652 0.492569
vt 0.569300 0.349475
vt 0.539984 0.299199
vt 0.294585 0.460122
vt 0.272617 0.398233
vt 0.605125 0.515157
vt 0.651358 0.512026
vt 0.642726 0.571658
vt 0.545021 0.461953
vt 0.581767 0.462697
vt 0.570688 0.498833
vt 0.875304 0.604653
vt 0.864633 0.726560
vt 0.812308 0.687045
vt 0.445582 0.530794
vt 0.388422 0.516417
vt 0.425337 0.498612
vt 0.124225 0.608497
vt 0.049020 0.545538
vt 0.000000 0.451653
vt 0.724476 0.755143
vt 0.592726 0.791269
vt 0.668319 0.748208
vt 0.595766 0.327100
vt 0.616005 0.379123
vt 0.434660 0.640604
vt 0.496713 0.646114
vt 0.496628 0.796260
vt 0.375214 0.623035
vt 0.399745 0.776622
vt 0.481367 0.506506
vt 0.580661 0.413622
vt 0.356336 0.132167
vt 0.620821 0.439694
vt 0.615132 0.480284
vt 0.231096 0.214322
vt 0.188588 0.211355
vt 0.265550 0.139632
vt 0.342810 0.513889
vt 0.284686 0.525747
vt 0.085937 0.644115
vt 0.681508 0.615036
vt 0.683364 0.549622
vt 0.904678 0.468052
vt 0.761458 0.446666
vt 0.773211 0.361476
vt 0.450165 0.351289
vt 0.408401 0.342207
vt 0.547480 0.530345
vt 0.539299 0.501039
vt 1.000000 0.443034
vt 0.178269 0.610287
vt 0.143384 0.549757
vt 0.699499 0.456625
vt 0.672443 0.404025
vt 0.720723 0.393204
vt 0.598048 0.831527
vt 0.694341 0.819602
vt 0.602509 0.874331
vt 0.561655 0.566772
vt 0.619474 0.623732
vt 0.558932 0.641505
vt 0.723783 0.581697
vt 0.435507 0.829063
vt 0.431894 0.566962
vt 0.352021 0.572353
vt 0.378668 0.088894
vt 0.378100 0.482106
vt 0.093649 0.474786
vt 0.143435 0.332194
vt 0.756203 0.501738
vt 0.820415 0.607446
vt 0.710653 0.523237
vt 0.449689 0.413651
vt 0.410992 0.415550
vt 0.375300 0.381926
vt 0.951100 0.539567
vt 0.914639 0.640143
vt 0.178266 0.153160
vt 0.240927 0.104169
vt 0.359212 0.197533
vt 0.292198 0.168580
vt 0.275900 0.752131
vt 0.217406 0.780035
vt 0.136855 0.728999
vt 0.314573 0.615311
vt 0.423992 0.032828
vt 0.525632 0.000000
vt 0.440796 0.254444
vt 0.388509 0.310421
vt 0.658799 0.354423
vt 0.686670 0.305326
vt 0.486707 0.874331
vt 0.683595 0.058183
vt 0.747873 0.093000
vt 0.220976 0.368234
vt 0.760951 0.203723
vt 0.851969 0.323163
vt 0.628578 0.304476
vt 0.854954 0.545267
vt 0.393407 0.847927
vt 0.496552 0.559884
vt 0.187816 0.688468
vt 0.667118 0.472108
vt 0.123847 0.241449
vt 0.311863 0.551264
vt 0.656078 0.241778
vt 0.332437 0.358774
vt 0.361216 0.309700
vt 0.405799 0.192378
vt 0.471517 0.215328
vt 0.329386 0.742360
vt 0.715245 0.489380
vt 0.321695 0.819129
vt 0.304648 0.311596
vt 0.679735 0.144807
vt 0.331896 0.249144
vt 0.732426 0.706661
vt 0.719182 0.270024
vt 0.603097 0.073491
vt 0.303172 0.073440
vt 0.450864 0.465718
vt 0.625566 0.188917
vt 0.785152 0.781047
vt 0.272803 0.278169
vt 0.360911 0.045189
vt 0.385509 0.255897
vt 0.788956 0.663150
vt 0.410851 0.464202
vt 0.534957 0.179327
vt 0.577207 0.186903
vt 0.601476 0.250479
vt 0.608441 0.018702
vt 0.544895 0.251938
vt 0.584935 0.291618
vn -0.822352 0.563707 -0.076846
vn -0.838221 0.482620 0.253792
vn -0.605243 0.790246 0.095492
vn 0.216773 -0.440931 0.870937
vn -0.063753 -0.524705 0.848872
vn 0.003845 -0.894986 0.446028
vn -0.210425 0.740410 0.638325
vn 0.001892 0.607013 0.794671
vn 0.031281 0.870418 0.491287
vn -0.520676 -0.388501 -0.760216
vn -0.707572 -0.492294 -0.506912
vn -0.798059 -0.045625 -0.600818
vn -0.159551 -0.171026 0.972228
vn -0.000305 -0.088168 0.996094
vn 0.305856 -0.916745 0.256874
vn 0.292764 -0.901639 0.318247
vn -0.050264 -0.993194 0.104984
vn -0.063234 -0.989319 0.131230
vn 0.021363 0.998932 -0.040284
vn 0.094913 0.961272 0.258614
vn 0.154088 0.976257 0.152043
vn -0.977691 -0.194708 -0.078585
vn -0.969024 -0.180670 0.168310
vn -0.982940 0.166295 -0.078463
vn 0.308451 0.875546 0.371776
vn 0.209418 0.743828 0.634693
vn -0.948698 0.298166 0.105045
vn -0.945799 0.086428 0.312967
vn 0.440779 0.691031 -0.572832
vn 0.688131 0.563066 -0.457595
vn 0.474380 0.386639 -0.790826
vn 0.176031 0.982482 -0.060640
vn 0.348369 0.935331 -0.061159
vn 0.301828 0.866298 -0.397992
vn 0.401715 -0.915708 -0.008087
vn 0.072604 -0.997253 -0.014069
vn 0.336314 -0.920255 -0.199957
vn -0.187689 0.732322 -0.654561
vn -0.438734 0.693777 -0.571093
vn -0.280404 0.877102 -0.389874
vn -0.401715 -0.915708 -0.008087
vn -0.047487 -0.998230 0.035401
vn -0.255226 -0.955535 0.147588
vn 0.226295 -0.881405 -0.414594
vn 0.168340 -0.345866 -0.923032
vn 0.306864 -0.347819 -0.885891
vn 0.513810 0.698202 0.498459
vn 0.594440 0.745903 0.300333
vn -0.164068 0.244942 -0.955535
vn 0.000000 0.265725 -0.964019
vn 0.008698 -0.363170 -0.931669
vn -0.335521 0.217444 -0.916562
vn -0.176489 -0.364727 -0.914212
vn -0.041108 0.895535 -0.443068
vn 0.345744 0.922819 0.169774
vn -0.377056 -0.473739 0.795831
vn 0.605243 0.790246 0.095492
vn 0.556597 0.803308 -0.211707
vn -0.710257 -0.535356 0.457045
vn -0.305856 -0.916745 0.256874
vn -0.290841 -0.895779 0.336131
vn -0.688131 0.563066 -0.457595
vn -0.922300 0.140049 -0.360149
vn -0.068209 -0.997223 0.028871
vn 0.532365 0.076052 -0.843074
vn 0.709342 0.277871 -0.647725
vn 0.634297 -0.750084 0.187078
vn 0.969024 -0.180670 0.168310
vn 0.900449 -0.295511 0.319071
vn -0.160375 0.924284 0.346355
vn -0.405621 0.810816 0.421918
vn 0.178686 0.730247 -0.659352
vn 0.133427 0.907102 -0.399121
vn 0.255226 -0.955535 0.147588
vn -0.821406 -0.522141 -0.229377
vn -0.816523 -0.574419 0.057100
vn 0.948698 0.298166 0.105045
vn 0.838221 0.482620 0.253792
vn 0.945799 0.086428 0.312967
vn 0.079348 -0.909879 -0.407178
vn 0.061586 -0.994842 -0.080233
vn 0.015748 -0.999176 -0.036836
vn 0.222846 0.530625 -0.817743
vn 0.335521 0.217444 -0.916562
vn 0.164068 0.244942 -0.955535
vn 0.798059 -0.045625 -0.600818
vn -0.047670 -0.904019 -0.424787
vn -0.222846 0.530625 -0.817743
vn -0.474380 0.386639 -0.790826
vn -0.165593 -0.877224 0.450545
vn -0.555742 0.803674 -0.212622
vn -0.634297 -0.750084 0.187078
vn -0.620655 -0.741050 0.256050
vn 0.977691 -0.194708 -0.078585
vn 0.821406 -0.522141 -0.229377
vn 0.922300 0.140049 -0.360149
vn -0.141911 0.976440 0.162481
vn -0.342814 0.923429 0.172277
vn -0.593280 0.745445 0.303812
vn 0.047487 -0.998230 0.035401
vn 0.068209 -0.997223 0.028871
vn 0.050264 -0.993194 0.104984
vn -0.009552 -0.998260 0.057772
vn -0.523118 -0.043092 0.851161
vn -0.605914 -0.449965 0.655995
vn -0.223670 -0.882199 -0.414350
vn -0.067721 -0.996673 -0.045228
vn -0.072604 -0.997253 -0.014069
vn -0.532365 0.076052 -0.843074
vn -0.035066 -0.991424 0.125858
vn 0.036897 -0.995361 0.088534
vn -0.259346 0.444166 0.857570
vn -0.529344 0.580493 0.618702
vn 0.803034 0.434339 0.407941
vn 0.855800 0.109989 0.505417
vn 0.002686 -0.998932 -0.045717
vn 0.059358 -0.998016 0.020814
vn 0.009552 -0.998260 0.057772
vn -0.900449 -0.295511 0.319071
vn 0.708731 -0.527421 0.468490
vn 0.620655 -0.741050 0.256050
vn 0.688864 0.411420 0.596789
vn 0.816523 -0.574419 0.057100
vn -0.021790 -0.998871 -0.041536
vn 0.001801 0.606952 -0.794702
vn -0.336314 -0.920255 -0.199957
vn 0.822352 0.563707 -0.076846
vn 0.063234 -0.989319 0.131230
vn -0.709342 0.277871 -0.647725
vn 0.701468 0.044008 0.711325
vn -0.801599 0.435987 0.409009
vn -0.701407 0.399426 0.590289
vn -0.324564 0.056215 0.944182
vn -0.076388 0.252937 0.964446
vn -0.306864 -0.347819 -0.885891
vn 0.982940 0.166295 -0.078463
vn -0.131779 -0.963530 -0.232795
vn -0.855800 0.109989 0.505417
vn 0.534867 -0.481338 0.694388
vn -0.700369 0.049715 0.712027
vn 0.520676 -0.388501 -0.760216
vn 0.842708 -0.181402 0.506821
vn 0.190802 -0.878842 0.437208
vn -0.058260 -0.998047 0.021455
vn -0.152409 0.985412 -0.075655
vn 0.510666 -0.055055 0.857997
vn 0.069033 -0.996643 -0.043825
vn -0.845485 -0.178961 0.503067
vn 0.102878 0.988128 -0.114048
vn -0.498428 0.298196 0.813990
vn 0.707572 -0.492294 -0.506912
vn -0.347789 0.935850 -0.056368
vn 0.163762 0.060915 0.984588
vn 0.339732 0.045930 0.939390
vn 0.503281 0.285257 0.815638
vn -0.115390 0.981964 -0.149571
vn 0.235878 0.428968 0.871944
vn 0.448744 0.554552 0.700736
usemtl Material_untitled
s 1
f 46/1/1 30/2/2 99/3/3
f 102/4/4 52/5/5 103/6/6
f 86/7/7 96/8/8 7/9/9
f 144/10/10 139/11/11 24/12/12
f 71/13/13 52/5/5 8/14/14
f 37/15/15 131/16/16 104/17/17
f 37/15/15 104/17/17 53/18/18
f 129/19/19 1/20/20 43/21/21
f 10/22/22 39/23/23 127/24/24
f 1/20/20 7/9/9 4/25/25
f 4/25/25 7/9/9 81/26/26
f 133/27/27 9/28/28 30/2/2
f 94/29/29 42/30/30 115/31/31
f 142/32/32 67/33/33 89/34/34
f 2/35/35 130/36/36 84/37/37
f 106/38/38 105/39/39 74/40/40
f 57/41/41 125/42/42 121/43/43
f 81/26/26 7/9/9 96/8/8
f 145/44/44 45/45/45 147/46/46
f 4/25/25 134/47/47 21/48/48
f 4/25/25 81/26/26 134/47/47
f 126/49/49 87/50/50 132/51/51
f 122/52/52 126/49/49 155/53/53
f 106/38/38 74/40/40 143/54/54
f 1/20/20 4/25/25 50/55/55
f 1/20/20 50/55/55 43/21/21
f 12/56/56 52/5/5 71/13/13
f 67/33/33 51/57/57 40/58/58
f 120/59/59 78/60/60 152/61/61
f 4/25/25 21/48/48 50/55/55
f 50/55/55 21/48/48 51/57/57
f 46/1/1 97/62/62 48/63/63
f 57/41/41 77/64/64 125/42/42
f 116/65/65 115/31/31 66/66/66
f 76/67/67 118/68/68 35/69/69
f 16/70/70 15/71/71 86/7/7
f 93/72/72 113/73/73 89/34/34
f 37/15/15 53/18/18 75/74/74
f 10/22/22 36/75/75 98/76/76
f 128/77/77 20/78/78 61/79/79
f 150/80/80 153/81/81 157/82/82
f 92/83/83 109/84/84 29/85/85
f 116/65/65 66/66/66 124/86/86
f 7/9/9 1/20/20 16/70/70
f 158/87/87 155/53/53 132/51/51
f 107/88/88 122/52/52 108/89/89
f 16/70/70 86/7/7 7/9/9
f 52/5/5 95/90/90 103/6/6
f 10/22/22 98/76/76 39/23/23
f 46/1/1 101/91/91 97/62/62
f 57/41/41 121/43/43 69/92/92
f 120/59/59 62/93/93 78/60/60
f 6/94/94 156/95/95 91/96/96
f 16/70/70 1/20/20 13/97/97
f 13/97/97 1/20/20 129/19/19
f 92/83/83 93/72/72 94/29/29
f 16/70/70 13/97/97 18/98/98
f 16/70/70 18/98/98 15/71/71
f 15/71/71 18/98/98 34/99/99
f 2/35/35 111/100/100 31/101/101
f 46/1/1 99/3/3 101/91/91
f 152/61/61 135/102/102 123/103/103
f 12/56/56 49/104/104 26/105/105
f 18/98/98 99/3/3 34/99/99
f 154/106/106 33/107/107 141/108/108
f 122/52/52 119/109/109 108/89/89
f 95/90/90 72/110/110 11/111/111
f 82/112/112 86/7/7 83/113/113
f 23/114/114 38/115/115 61/79/79
f 23/114/114 61/79/79 20/78/78
f 93/72/72 89/34/34 94/29/29
f 150/80/80 157/82/82 41/116/116
f 23/114/114 20/78/78 21/48/48
f 102/4/4 8/14/14 52/5/5
f 85/117/117 138/118/118 131/16/16
f 120/59/59 152/61/61 26/105/105
f 120/59/59 54/119/119 62/93/93
f 20/78/78 51/57/57 21/48/48
f 92/83/83 29/85/85 87/50/50
f 25/120/120 37/15/15 137/121/121
f 23/114/114 21/48/48 134/47/47
f 23/114/114 134/47/47 27/122/122
f 78/60/60 135/102/102 152/61/61
f 12/56/56 152/61/61 95/90/90
f 107/88/88 126/49/49 122/52/52
f 46/1/1 48/63/63 127/24/24
f 2/35/35 156/95/95 90/123/123
f 158/87/87 41/116/116 70/124/124
f 107/88/88 5/125/125 87/50/50
f 154/106/106 141/108/108 148/126/126
f 23/114/114 27/122/122 38/115/115
f 109/84/84 147/46/46 45/45/45
f 149/127/127 51/57/57 20/78/78
f 78/60/60 146/128/128 135/102/102
f 108/89/89 117/129/129 97/62/62
f 27/122/122 17/130/130 38/115/115
f 28/131/131 32/132/132 83/113/113
f 28/131/131 83/113/113 34/99/99
f 34/99/99 83/113/113 15/71/71
f 12/56/56 26/105/105 152/61/61
f 142/32/32 43/21/21 50/55/55
f 76/67/67 35/69/69 137/121/121
f 57/41/41 36/75/75 139/11/11
f 69/92/92 121/43/43 62/93/93
f 82/112/112 64/133/133 110/134/134
f 28/131/131 34/99/99 30/2/2
f 30/2/2 34/99/99 99/3/3
f 122/52/52 136/135/135 144/10/10
f 149/127/127 19/136/136 91/96/96
f 97/62/62 101/91/91 105/39/39
f 93/72/72 143/54/54 113/73/73
f 93/72/72 5/125/125 143/54/54
f 119/109/109 24/12/12 117/129/129
f 158/87/87 56/137/137 33/107/107
f 28/131/131 30/2/2 9/28/28
f 28/131/131 9/28/28 22/138/138
f 105/39/39 108/89/89 97/62/62
f 2/35/35 75/74/74 111/100/100
f 150/80/80 41/116/116 158/87/87
f 90/123/123 118/68/68 76/67/67
f 158/87/87 33/107/107 154/106/106
f 12/56/56 95/90/90 52/5/5
f 57/41/41 139/11/11 148/126/126
f 25/120/120 100/139/139 131/16/16
f 29/85/85 45/45/45 132/51/51
f 28/131/131 22/138/138 32/132/132
f 32/132/132 22/138/138 14/140/140
f 116/65/65 124/86/86 151/141/141
f 44/142/142 35/69/69 61/79/79
f 44/142/142 61/79/79 38/115/115
f 89/34/34 40/58/58 94/29/29
f 92/83/83 94/29/29 115/31/31
f 145/44/44 84/37/37 130/36/36
f 102/4/4 59/143/143 100/139/139
f 85/117/117 131/16/16 59/143/143
f 46/1/1 127/24/24 133/27/27
f 109/84/84 45/45/45 29/85/85
f 122/52/52 144/10/10 119/109/109
f 44/142/142 38/115/115 17/130/130
f 107/88/88 106/38/38 5/125/125
f 142/32/32 89/34/34 113/73/73
f 127/24/24 39/23/23 133/27/27
f 91/96/96 156/95/95 124/86/86
f 154/106/106 136/135/135 155/53/53
f 140/144/144 152/61/61 123/103/103
f 3/145/145 129/19/19 143/54/54
f 39/23/23 9/28/28 133/27/27
f 91/96/96 124/86/86 66/66/66
f 76/67/67 137/121/121 75/74/74
f 67/33/33 40/58/58 89/34/34
f 44/142/142 17/130/130 100/139/139
f 44/142/142 100/139/139 25/120/120
f 102/4/4 100/139/139 63/146/146
f 74/40/40 105/39/39 101/91/91
f 150/80/80 132/51/51 45/45/45
f 82/112/112 96/8/8 86/7/7
f 44/142/142 25/120/120 35/69/69
f 107/88/88 108/89/89 105/39/39
f 46/1/1 133/27/27 30/2/2
f 145/44/44 130/36/36 88/147/147
f 82/112/112 110/134/134 96/8/8
f 145/44/44 147/46/46 151/141/141
f 107/88/88 105/39/39 106/38/38
f 10/22/22 48/63/63 36/75/75
f 25/120/120 131/16/16 37/15/15
f 92/83/83 87/50/50 5/125/125
f 47/148/148 120/59/59 26/105/105
f 47/148/148 26/105/105 14/140/140
f 140/144/144 58/149/149 72/110/110
f 29/85/85 132/51/51 87/50/50
f 109/84/84 116/65/65 151/141/141
f 25/120/120 137/121/121 35/69/69
f 48/63/63 24/12/12 36/75/75
f 47/148/148 14/140/140 22/138/138
f 114/150/150 32/132/132 14/140/140
f 142/32/32 50/55/55 67/33/33
f 47/148/148 22/138/138 9/28/28
f 47/148/148 9/28/28 54/119/119
f 10/22/22 127/24/24 48/63/63
f 109/84/84 151/141/141 147/46/46
f 2/35/35 90/123/123 76/67/67
f 156/95/95 112/151/151 124/86/86
f 57/41/41 98/76/76 36/75/75
f 149/127/127 42/30/30 40/58/58
f 149/127/127 91/96/96 42/30/30
f 119/109/109 144/10/10 24/12/12
f 107/88/88 87/50/50 126/49/49
f 47/148/148 54/119/119 120/59/59
f 36/75/75 24/12/12 139/11/11
f 149/127/127 20/78/78 128/77/77
f 150/80/80 88/147/147 153/81/81
f 6/94/94 90/123/123 156/95/95
f 6/94/94 118/68/68 90/123/123
f 119/109/109 117/129/129 108/89/89
f 109/84/84 115/31/31 116/65/65
f 3/145/145 13/97/97 129/19/19
f 68/152/152 74/40/40 101/91/91
f 129/19/19 113/73/73 143/54/54
f 2/35/35 76/67/67 75/74/74
f 60/153/153 110/134/134 8/14/14
f 115/31/31 42/30/30 66/66/66
f 85/117/117 59/143/143 11/111/111
f 55/154/154 60/153/153 102/4/4
f 122/52/52 155/53/53 136/135/135
f 3/145/145 68/152/152 18/98/98
f 145/44/44 151/141/141 112/151/151
f 82/112/112 83/113/113 114/150/150
f 60/153/153 8/14/14 102/4/4
f 118/68/68 61/79/79 35/69/69
f 57/41/41 141/108/108 77/64/64
f 151/141/141 124/86/86 112/151/151
f 97/62/62 117/129/129 48/63/63
f 55/154/154 102/4/4 63/146/146
f 67/33/33 50/55/55 51/57/57
f 142/32/32 129/19/19 43/21/21
f 63/146/146 100/139/139 17/130/130
f 118/68/68 128/77/77 61/79/79
f 3/145/145 18/98/98 13/97/97
f 55/154/154 63/146/146 79/155/155
f 68/152/152 99/3/3 18/98/98
f 154/106/106 148/126/126 139/11/11
f 106/38/38 143/54/54 5/125/125
f 78/60/60 62/93/93 121/43/43
f 63/146/146 17/130/130 79/155/155
f 2/35/35 112/151/151 156/95/95
f 6/94/94 19/136/136 118/68/68
f 150/80/80 145/44/44 88/147/147
f 64/133/133 49/104/104 12/56/56
f 154/106/106 155/53/53 158/87/87
f 57/41/41 148/126/126 141/108/108
f 49/104/104 14/140/140 26/105/105
f 37/15/15 75/74/74 137/121/121
f 85/117/117 11/111/111 65/156/156
f 140/144/144 72/110/110 95/90/90
f 6/94/94 91/96/96 19/136/136
f 57/41/41 69/92/92 98/76/76
f 64/133/133 12/56/56 71/13/13
f 69/92/92 62/93/93 54/119/119
f 69/92/92 54/119/119 39/23/23
f 48/63/63 117/129/129 24/12/12
f 64/133/133 71/13/13 110/134/134
f 154/106/106 139/11/11 144/10/10
f 158/87/87 70/124/124 56/137/137
f 68/152/152 101/91/91 99/3/3
f 2/35/35 84/37/37 112/151/151
f 71/13/13 8/14/14 110/134/134
f 3/145/145 74/40/40 68/152/152
f 142/32/32 113/73/73 129/19/19
f 39/23/23 54/119/119 9/28/28
f 145/44/44 112/151/151 84/37/37
f 19/136/136 128/77/77 118/68/68
f 3/145/145 143/54/54 74/40/40
f 98/76/76 69/92/92 39/23/23
f 64/133/133 114/150/150 49/104/104
f 49/104/104 114/150/150 14/140/140
f 42/30/30 94/29/29 40/58/58
f 83/113/113 32/132/132 114/150/150
f 145/44/44 150/80/80 45/45/45
f 131/16/16 138/118/118 104/17/17
f 73/157/157 60/153/153 55/154/154
f 73/157/157 96/8/8 110/134/134
f 102/4/4 103/6/6 59/143/143
f 126/49/49 132/51/51 155/53/53
f 73/157/157 110/134/134 60/153/153
f 86/7/7 15/71/71 83/113/113
f 73/157/157 79/155/155 80/158/158
f 80/158/158 79/155/155 27/122/122
f 149/127/127 128/77/77 19/136/136
f 73/157/157 55/154/154 79/155/155
f 42/30/30 91/96/96 66/66/66
f 2/35/35 31/101/101 130/36/36
f 79/155/155 17/130/130 27/122/122
f 100/139/139 59/143/143 131/16/16
f 73/157/157 80/158/158 81/26/26
f 81/26/26 80/158/158 134/47/47
f 140/144/144 95/90/90 152/61/61
f 80/158/158 27/122/122 134/47/47
f 78/60/60 121/43/43 146/128/128
f 59/143/143 103/6/6 11/111/111
f 82/112/112 114/150/150 64/133/133
f 149/127/127 40/58/58 51/57/57
f 92/83/83 5/125/125 93/72/72
f 73/157/157 81/26/26 96/8/8
f 150/80/80 158/87/87 132/51/51
f 95/90/90 11/111/111 103/6/6
f 154/106/106 144/10/10 136/135/135
f 92/83/83 115/31/31 109/84/84
