# Blender v2.59 (sub 0) OBJ File: 'metroid_low.blend'
# www.blender.org
mtllib metroid_pbox.mtl
o Cube
v 0.731558 0.061405 -0.752564
v 0.433880 -0.529465 0.564861
v -0.371223 -0.529465 0.564861
v -0.668900 0.061405 -0.752564
v 0.788946 1.001696 -0.455910
v 0.604873 0.959792 0.757618
v -0.542217 0.959792 0.757618
v -0.726289 1.001696 -0.455911
v 0.031328 -0.564178 0.652696
v 0.561298 -0.833177 -0.245835
v 0.031329 -0.019777 -0.833746
v -0.498641 -0.833177 -0.245835
v 0.876781 1.047627 0.000000
v 0.031328 1.047627 0.845453
v -0.814124 1.047627 -0.000000
v 0.031329 1.089531 -0.543746
v 0.546833 0.202174 0.923872
v 0.840571 0.565340 -0.593831
v -0.556598 0.202174 0.923872
v -0.850335 0.565340 -0.593832
v 0.031329 -0.824772 -0.245835
v 0.031328 1.269111 0.000000
v 1.062054 0.202174 0.078419
v -0.004883 0.202174 1.145356
v -1.071819 0.202174 0.078419
v -0.004882 0.565340 -0.815315
vt 0.537839 0.294403
vt 0.475030 0.259999
vt 0.378930 0.232866
vt 0.412007 0.283601
vt 0.550021 0.568051
vt 0.389553 0.543939
vt 0.284393 0.240910
vt 0.286860 0.269272
vt 0.218413 0.534847
vt 0.337117 0.742675
vt 0.159107 0.695978
vt 0.125040 0.650046
vt 0.316209 0.716564
vt 0.517892 0.731904
vt 0.525421 0.690137
vt 0.174062 0.549181
vt 0.304095 0.570905
vt 0.445676 0.576378
vt 0.551338 0.657751
vt 0.601770 0.507934
vt 0.458637 0.396532
vt 0.322463 0.357466
vt 0.197362 0.370369
vt 0.096500 0.457341
vt 0.150957 0.617660
vt 0.356684 0.663689
vn 0.056552 -0.946803 0.316805
vn 0.087279 -0.545575 -0.833505
vn -0.056552 -0.946803 0.316805
vn -0.087279 -0.545575 -0.833505
vn -0.196532 0.952614 -0.232168
vn 0.196532 0.952614 -0.232167
vn -0.220754 0.950019 0.220754
vn 0.220754 0.950019 0.220754
vn 0.959528 0.187105 -0.210469
vn 0.911336 -0.261168 -0.318212
vn 0.886047 0.137880 0.442616
vn 0.810317 -0.433783 0.393979
vn 0.274744 0.253550 0.927485
vn 0.285616 -0.484674 0.826749
vn -0.274729 0.276464 0.920919
vn -0.282659 -0.505348 0.815308
vn -0.871900 0.215121 0.439901
vn -0.780582 -0.486734 0.392151
vn -0.941011 0.288457 -0.176893
vn -0.874505 -0.312265 -0.371123
vn 0.182719 0.145950 -0.972272
vn 0.195088 0.387273 -0.901088
vn -0.184571 0.121763 -0.975247
vn -0.194347 0.411943 -0.890243
usemtl _untitled
s off
f 10/1/1 2/2/1 9/3/1
f 10/1/1 9/3/1 21/4/1
f 1/5/2 10/1/2 21/4/2
f 1/5/2 21/4/2 11/6/2
f 21/4/3 9/3/3 3/7/3
f 21/4/3 3/7/3 12/8/3
f 11/6/4 21/4/4 12/8/4
f 11/6/4 12/8/4 4/9/4
f 16/10/5 8/11/5 15/12/5
f 16/10/5 15/12/5 22/13/5
f 5/14/6 16/10/6 22/13/6
f 5/14/6 22/13/6 13/15/6
f 22/13/7 15/12/7 7/16/7
f 22/13/7 7/16/7 14/17/7
f 13/15/8 22/13/8 14/17/8
f 13/15/8 14/17/8 6/18/8
f 18/19/9 5/14/9 13/15/9
f 18/19/9 13/15/9 23/20/9
f 1/5/10 18/19/10 23/20/10
f 1/5/10 23/20/10 10/1/10
f 23/20/11 13/15/11 6/18/11
f 23/20/11 6/18/11 17/21/11
f 10/1/12 23/20/12 17/21/12
f 10/1/12 17/21/12 2/2/12
f 17/21/13 6/18/13 14/17/13
f 17/21/13 14/17/13 24/22/13
f 2/2/14 17/21/14 24/22/14
f 2/2/14 24/22/14 9/3/14
f 24/22/15 14/17/15 7/16/15
f 24/22/15 7/16/15 19/23/15
f 9/3/16 24/22/16 19/23/16
f 9/3/16 19/23/16 3/7/16
f 19/23/17 7/16/17 15/12/17
f 19/23/17 15/12/17 25/24/17
f 3/7/18 19/23/18 25/24/18
f 3/7/18 25/24/18 12/8/18
f 25/24/19 15/12/19 8/11/19
f 25/24/19 8/11/19 20/25/19
f 12/8/20 25/24/20 20/25/20
f 12/8/20 20/25/20 4/9/20
f 18/19/21 1/5/21 11/6/21
f 18/19/21 11/6/21 26/26/21
f 5/14/22 18/19/22 26/26/22
f 5/14/22 26/26/22 16/10/22
f 26/26/23 11/6/23 4/9/23
f 26/26/23 4/9/23 20/25/23
f 16/10/24 26/26/24 20/25/24
f 16/10/24 20/25/24 8/11/24
