# Blender v2.59 (sub 0) OBJ File: 'rock_volumetrics.blend'
# www.blender.org
mtllib rock_volume_1_big.mtl
o Icosphere.007
v -1.269591 -3.786323 5.705471
v 4.235130 -0.637600 4.324008
v -5.591629 -3.314540 -0.197211
v 5.330749 -3.309231 1.291471
v 5.372723 1.915611 -1.779303
v -1.683558 -3.170999 -2.921890
v 0.801925 3.388807 5.936618
v -0.643983 -6.533289 0.138327
v 0.978805 -4.459596 -3.861833
v 4.597700 -1.199350 -3.450574
v 3.089780 5.320813 0.020718
v 3.788509 -4.591013 -2.441400
v -3.915034 5.121367 1.728801
v -2.180442 5.136060 -3.112902
v -2.619215 -4.180968 4.515594
v 0.979319 5.994756 -3.405827
v -4.855971 -2.073768 -2.816715
v -5.971789 -2.355124 1.034547
v -0.611797 5.599369 4.315357
v -3.306597 -5.453947 0.253056
v 5.836899 -2.334830 -1.828156
v -0.028485 0.336844 6.737060
v -3.515278 0.722155 3.212080
v -5.540026 0.850170 -1.299374
v 1.083479 6.649950 0.938221
v 3.228536 3.991930 3.194392
v 0.760291 -3.678757 -4.671818
v -0.926290 3.354153 -5.515655
v 1.485586 -6.494984 1.691045
v -2.434432 -0.631257 -5.846707
v -4.078246 -2.954260 3.719926
v 2.474481 2.282063 -4.815687
v 4.225952 -5.436918 -0.023264
v 4.197243 1.021999 4.135754
v 3.140148 4.844717 -3.281946
v -3.755945 4.772709 -1.049361
v -5.720740 1.489116 1.125270
v -2.090228 3.577371 4.661818
v -3.601032 2.139930 -4.025785
v 5.878190 -0.750563 -0.091207
vt 0.250537 0.435423
vt 0.367673 0.391265
vt 0.419710 0.496202
vt 0.303556 0.185657
vt 0.226708 0.132128
vt 0.265354 0.127662
vt 0.191695 0.876159
vt 0.240604 0.842240
vt 0.339766 0.927691
vt 0.139972 0.326638
vt 0.000000 0.251962
vt 0.215451 0.204014
vt 0.227299 0.275112
vt 0.388305 0.322304
vt 0.327829 0.282886
vt 0.586202 0.340831
vt 0.497201 0.408193
vt 0.453817 0.292492
vt 0.178346 0.627026
vt 0.215275 0.702244
vt 0.158791 0.724038
vt 0.209045 0.000000
vt 0.428272 0.000000
vt 0.315722 0.068789
vt 0.158604 0.773115
vt 0.254421 0.791171
vt 0.087870 0.913094
vt 0.007127 0.824397
vt 0.102227 0.835345
vt 0.336839 0.232664
vt 0.449939 0.195272
vt 0.294242 0.742782
vt 0.327063 0.810487
vt 0.262288 0.963953
vt 0.421918 0.739562
vt 0.238115 0.241901
vt 0.041476 0.388700
vt 0.226886 0.743678
vt 0.254531 0.547031
vt 0.188069 0.496202
vt 0.115450 0.068203
vt 0.077828 0.728954
vt 0.267897 0.671128
vt 0.164955 1.000000
vt 0.482672 0.164813
vt 0.382595 0.137915
vt 0.211155 0.491248
vt 0.124542 0.550031
vt 0.105348 0.187700
vt 0.421918 0.572826
vt 0.000000 0.659286
vn 0.711692 -0.165319 0.682730
vn 0.838404 -0.390667 0.379986
vn 0.986511 0.089785 0.136692
vn -0.526048 -0.842433 -0.116337
vn -0.944456 -0.243995 0.220130
vn -0.838954 -0.522141 -0.153264
vn -0.683187 0.693442 0.228797
vn -0.700583 0.672933 -0.237281
vn -0.928281 0.190191 -0.319468
vn -0.046449 -0.002655 0.998901
vn -0.585162 0.309488 0.749504
vn -0.750542 -0.244331 0.613941
vn -0.119510 -0.494400 0.860958
vn 0.600482 -0.799585 0.006775
vn 0.238166 -0.917020 0.319834
vn 0.636464 -0.092318 -0.765740
vn 0.907376 -0.238166 -0.346263
vn 0.480514 -0.676687 -0.557817
vn 0.915922 0.324534 -0.236122
vn 0.622028 0.601581 -0.501144
vn 0.703543 0.707755 0.063814
vn -0.357921 -0.177709 -0.916654
vn -0.732749 -0.364666 -0.574480
vn 0.188391 0.974853 0.118900
vn -0.474288 0.762749 -0.439558
vn 0.195563 0.437117 0.877865
vn -0.098270 0.790826 0.604083
vn -0.180242 -0.974212 -0.135685
vn -0.052004 -0.778741 -0.625141
vn -0.138340 0.386670 -0.911740
vn -0.739708 0.293161 -0.605670
vn -0.932249 0.251106 0.260384
vn -0.507859 -0.639149 0.577532
vn 0.117740 0.859096 -0.498032
vn 0.706076 0.567553 0.423414
vn 0.456832 0.155950 -0.875759
vn -0.759209 0.132115 0.637257
vn 0.020051 -0.543687 -0.839015
vn -0.396741 -0.785516 -0.474899
vn 0.786401 0.228767 0.573748
usemtl Material_rock_face.png
s 1
f 2/1/1 4/2/2 40/3/3
f 20/4/4 18/5/5 3/6/6
f 13/7/7 36/8/8 24/9/9
f 22/10/10 38/11/11 31/12/12
f 22/10/10 1/13/13 2/1/1
f 33/14/14 4/2/2 29/15/15
f 10/16/16 21/17/17 12/18/18
f 5/19/19 35/20/20 11/21/21
f 24/22/9 30/23/22 17/24/23
f 25/25/24 14/26/25 13/7/7
f 38/27/11 7/28/26 19/29/27
f 12/18/18 8/30/28 9/31/29
f 17/24/23 20/4/4 3/6/6
f 14/26/25 28/32/30 39/33/31
f 37/34/32 13/7/7 24/9/9
f 9/31/29 8/30/28 20/4/4
f 28/32/30 30/35/22 39/33/31
f 25/25/24 11/21/21 35/20/20
f 20/4/4 8/30/28 15/36/33
f 36/8/8 39/33/31 24/9/9
f 7/37/26 38/11/11 22/10/10
f 14/26/25 16/38/34 28/32/30
f 10/39/16 5/19/19 21/40/17
f 18/5/5 37/41/32 24/22/9
f 15/36/33 1/13/13 31/12/12
f 25/25/24 26/42/35 11/21/21
f 32/43/36 5/19/19 10/39/16
f 33/14/14 8/30/28 12/18/18
f 37/34/32 23/44/37 38/27/11
f 16/38/34 35/20/20 28/32/30
f 30/35/22 28/32/30 32/43/36
f 27/45/38 12/18/18 9/31/29
f 38/27/11 13/7/7 37/34/32
f 9/31/29 20/4/4 6/46/39
f 30/23/22 27/45/38 17/24/23
f 7/37/26 22/10/10 34/47/40
f 33/14/14 29/15/15 8/30/28
f 40/48/3 21/40/17 5/19/19
f 32/43/36 28/32/30 35/20/20
f 31/12/12 38/11/11 23/49/37
f 18/5/5 20/4/4 15/36/33
f 11/21/21 26/42/35 5/19/19
f 10/39/16 27/50/38 32/43/36
f 3/6/6 24/22/9 17/24/23
f 20/4/4 17/24/23 6/46/39
f 37/41/32 31/12/12 23/49/37
f 14/26/25 39/33/31 36/8/8
f 13/7/7 19/29/27 25/25/24
f 40/48/3 5/19/19 34/51/40
f 27/45/38 6/46/39 17/24/23
f 4/2/2 2/1/1 29/15/15
f 4/2/2 21/17/17 40/3/3
f 34/51/40 26/42/35 7/28/26
f 13/7/7 38/27/11 19/29/27
f 19/29/27 7/28/26 26/42/35
f 34/47/40 22/10/10 2/1/1
f 2/1/1 40/3/3 34/47/40
f 16/38/34 14/26/25 25/25/24
f 13/7/7 14/26/25 36/8/8
f 27/50/38 30/35/22 32/43/36
f 24/22/9 3/6/6 18/5/5
f 1/13/13 29/15/15 2/1/1
f 9/31/29 6/46/39 27/45/38
f 21/17/17 33/14/14 12/18/18
f 19/29/27 26/42/35 25/25/24
f 27/45/38 10/16/16 12/18/18
f 18/5/5 31/12/12 37/41/32
f 29/15/15 15/36/33 8/30/28
f 31/12/12 18/5/5 15/36/33
f 33/14/14 21/17/17 4/2/2
f 34/51/40 5/19/19 26/42/35
f 16/38/34 25/25/24 35/20/20
f 35/20/20 5/19/19 32/43/36
f 31/12/12 1/13/13 22/10/10
f 29/15/15 1/13/13 15/36/33
f 30/35/22 24/9/9 39/33/31
