# Blender v2.59 (sub 0) OBJ File: 'rock_volumetrics.blend'
# www.blender.org
mtllib rock_volume_pbox_1.mtl
o Icosphere
v 0.000000 -3.000000 0.000000
v 2.170800 -1.341645 1.577160
v -0.829155 -1.341645 2.551920
v -2.683275 -1.341645 0.000000
v -0.829155 -1.341645 -2.551920
v 2.170800 -1.341645 -1.577160
v 0.829155 1.341645 2.551920
v -2.170800 1.341645 1.577160
v -2.170800 1.341645 -1.577160
v 0.829155 1.341645 -2.551920
v 2.683275 1.341645 0.000000
v 0.000000 3.000000 0.000000
v -0.487367 -2.551963 1.499986
v 1.275968 -2.551963 0.927034
v 0.788606 -1.577213 2.427035
v 1.275968 -2.551963 -0.927034
v 2.551944 -1.577208 0.000000
v -1.577189 -2.551955 0.000000
v -2.064568 -1.577209 1.499991
v -0.487367 -2.551963 -1.499986
v -2.064568 -1.577209 -1.499991
v 0.788606 -1.577213 -2.427035
v 2.853173 0.000000 -0.927038
v 2.853173 0.000000 0.927038
v 1.763357 0.000000 2.427050
v 0.000000 0.000000 3.000000
v -1.763357 0.000000 2.427050
v -2.853173 0.000000 0.927038
v -2.853173 0.000000 -0.927038
v -1.763357 0.000000 -2.427050
v 0.000000 0.000000 -3.000000
v 1.763357 0.000000 -2.427050
v 2.064568 1.577209 1.499991
v -0.788606 1.577213 2.427035
v -2.551944 1.577208 0.000000
v -0.788606 1.577213 -2.427035
v 2.064568 1.577209 -1.499991
v 1.577189 2.551955 0.000000
v 0.487367 2.551963 1.499986
v -1.275968 2.551963 0.927034
v -1.275968 2.551963 -0.927034
v 0.487367 2.551963 -1.499986
vt 0.762984 0.136293
vt 0.555592 0.073383
vt 0.547822 0.062066
vt 0.746200 0.196608
vt 0.893092 0.302278
vt 0.527041 0.175992
vt 0.852169 0.439912
vt 0.637008 0.365683
vt 0.707323 0.589925
vt 0.332802 0.087676
vt 0.161229 0.219566
vt 0.316021 0.147991
vt 0.156123 0.361249
vt 0.255009 0.538809
vt 0.371143 0.335638
vt 0.477111 0.578943
vt 0.934444 0.529972
vt 0.825251 0.699048
vt 0.847295 0.743144
vt 0.680942 0.207781
vt 0.879323 0.342323
vt 0.753514 0.423900
vt 0.183273 0.263661
vt 0.415075 0.177734
vt 0.301200 0.372784
vt 0.129200 0.620386
vt 0.074080 0.432737
vt 0.115431 0.660431
vt 0.593449 0.784976
vt 0.327581 0.754929
vt 0.452931 0.889327
vt 0.852401 0.601461
vt 0.531412 0.383767
vt 0.156354 0.522797
vt 0.245539 0.826416
vt 0.675721 0.875033
vt 0.637380 0.627072
vt 0.692503 0.814718
vt 0.481483 0.786717
vt 0.371516 0.597027
vt 0.262323 0.766102
vt 0.460701 0.900643
vn -0.038547 -0.661687 0.748789
vn 0.187594 -0.794658 0.577345
vn 0.471317 -0.661687 0.583121
vn 0.102381 -0.943524 0.315090
vn 0.700228 -0.661687 0.268049
vn 0.607061 -0.794656 0.000000
vn 0.700228 -0.661688 -0.268049
vn 0.331304 -0.943524 0.000000
vn -0.724044 -0.661694 0.194735
vn -0.491119 -0.794658 0.356821
vn -0.408939 -0.661686 0.628443
vn -0.268034 -0.943523 0.194737
vn -0.408939 -0.661686 -0.628443
vn -0.491119 -0.794658 -0.356821
vn -0.724044 -0.661694 -0.194735
vn -0.268034 -0.943523 -0.194737
vn 0.471317 -0.661687 -0.583121
vn 0.187594 -0.794658 -0.577345
vn -0.038547 -0.661687 -0.748789
vn 0.102381 -0.943524 -0.315090
vn 0.904981 -0.330393 0.268049
vn 0.982246 -0.187599 0.000000
vn 0.992077 0.125631 -0.000000
vn 0.904981 -0.330393 -0.268049
vn 0.024726 -0.330395 0.943519
vn 0.303531 -0.187597 0.934171
vn 0.306568 0.125651 0.943519
vn 0.534590 -0.330395 0.777851
vn -0.889698 -0.330386 0.315092
vn -0.794656 -0.187595 0.577348
vn -0.802607 0.125648 0.583125
vn -0.574584 -0.330397 0.748793
vn -0.574584 -0.330397 -0.748793
vn -0.794656 -0.187595 -0.577348
vn -0.802607 0.125648 -0.583125
vn -0.889698 -0.330386 -0.315092
vn 0.534590 -0.330395 -0.777851
vn 0.303531 -0.187597 -0.934171
vn 0.306568 0.125651 -0.943519
vn 0.024726 -0.330395 -0.943519
vn 0.574584 0.330397 0.748793
vn 0.794656 0.187595 0.577348
vn 0.889698 0.330386 0.315092
vn 0.802607 -0.125648 0.583125
vn -0.534590 0.330395 0.777851
vn -0.303531 0.187597 0.934171
vn -0.024726 0.330395 0.943519
vn -0.306568 -0.125651 0.943519
vn -0.904981 0.330393 -0.268049
vn -0.982246 0.187599 0.000000
vn -0.904981 0.330393 0.268049
vn -0.992077 -0.125631 0.000000
vn -0.024726 0.330395 -0.943519
vn -0.303531 0.187597 -0.934171
vn -0.534590 0.330395 -0.777851
vn -0.306568 -0.125651 -0.943519
vn 0.889698 0.330386 -0.315092
vn 0.794656 0.187595 -0.577348
vn 0.574584 0.330397 -0.748793
vn 0.802607 -0.125648 -0.583125
vn 0.408939 0.661686 0.628443
vn 0.491119 0.794658 0.356821
vn 0.268034 0.943523 0.194737
vn 0.724044 0.661694 0.194735
vn -0.471317 0.661687 0.583121
vn -0.187594 0.794658 0.577345
vn -0.102381 0.943524 0.315090
vn 0.038547 0.661687 0.748789
vn -0.700228 0.661687 -0.268049
vn -0.607061 0.794656 0.000000
vn -0.331304 0.943524 0.000000
vn -0.700228 0.661688 0.268049
vn 0.038547 0.661687 -0.748789
vn -0.187594 0.794658 -0.577345
vn -0.102381 0.943524 -0.315090
vn -0.471317 0.661687 -0.583121
vn 0.724044 0.661694 -0.194735
vn 0.491119 0.794658 -0.356821
vn 0.268034 0.943523 -0.194737
vn 0.408939 0.661686 -0.628443
usemtl _rock_face.png
s off
f 15/1/1 3/2/1 13/3/1
f 13/3/2 14/4/2 15/1/2
f 2/5/3 15/1/3 14/4/3
f 13/3/4 1/6/4 14/4/4
f 17/7/5 2/5/5 14/4/5
f 14/4/6 16/8/6 17/7/6
f 6/9/7 17/7/7 16/8/7
f 14/4/8 1/6/8 16/8/8
f 19/10/9 4/11/9 18/12/9
f 18/12/10 13/3/10 19/10/10
f 3/2/11 19/10/11 13/3/11
f 18/12/12 1/6/12 13/3/12
f 21/13/13 5/14/13 20/15/13
f 20/15/14 18/12/14 21/13/14
f 4/11/15 21/13/15 18/12/15
f 20/15/16 1/6/16 18/12/16
f 22/16/17 6/9/17 16/8/17
f 16/8/18 20/15/18 22/16/18
f 5/14/19 22/16/19 20/15/19
f 16/8/20 1/6/20 20/15/20
f 24/17/21 2/5/21 17/7/21
f 17/7/22 23/18/22 24/17/22
f 11/19/23 24/17/23 23/18/23
f 23/18/24 17/7/24 6/9/24
f 26/20/25 3/2/25 15/1/25
f 15/1/26 25/21/26 26/20/26
f 7/22/27 26/20/27 25/21/27
f 25/21/28 15/1/28 2/5/28
f 28/23/29 4/11/29 19/10/29
f 19/10/30 27/24/30 28/23/30
f 8/25/31 28/23/31 27/24/31
f 27/24/32 19/10/32 3/2/32
f 30/26/33 5/14/33 21/13/33
f 21/13/34 29/27/34 30/26/34
f 9/28/35 30/26/35 29/27/35
f 29/27/36 21/13/36 4/11/36
f 32/29/37 6/9/37 22/16/37
f 22/16/38 31/30/38 32/29/38
f 10/31/39 32/29/39 31/30/39
f 31/30/40 22/16/40 5/14/40
f 33/32/41 7/22/41 25/21/41
f 25/21/42 24/17/42 33/32/42
f 11/19/43 33/32/43 24/17/43
f 24/17/44 25/21/44 2/5/44
f 34/33/45 8/25/45 27/24/45
f 27/24/46 26/20/46 34/33/46
f 7/22/47 34/33/47 26/20/47
f 26/20/48 27/24/48 3/2/48
f 35/34/49 9/28/49 29/27/49
f 29/27/50 28/23/50 35/34/50
f 8/25/51 35/34/51 28/23/51
f 28/23/52 29/27/52 4/11/52
f 36/35/53 10/31/53 31/30/53
f 31/30/54 30/26/54 36/35/54
f 9/28/55 36/35/55 30/26/55
f 30/26/56 31/30/56 5/14/56
f 37/36/57 11/19/57 23/18/57
f 23/18/58 32/29/58 37/36/58
f 10/31/59 37/36/59 32/29/59
f 32/29/60 23/18/60 6/9/60
f 39/37/61 7/22/61 33/32/61
f 33/32/62 38/38/62 39/37/62
f 12/39/63 39/37/63 38/38/63
f 38/38/64 33/32/64 11/19/64
f 40/40/65 8/25/65 34/33/65
f 34/33/66 39/37/66 40/40/66
f 12/39/67 40/40/67 39/37/67
f 39/37/68 34/33/68 7/22/68
f 41/41/69 9/28/69 35/34/69
f 35/34/70 40/40/70 41/41/70
f 12/39/71 41/41/71 40/40/71
f 40/40/72 35/34/72 8/25/72
f 42/42/73 10/31/73 36/35/73
f 36/35/74 41/41/74 42/42/74
f 12/39/75 42/42/75 41/41/75
f 41/41/76 36/35/76 9/28/76
f 38/38/77 11/19/77 37/36/77
f 37/36/78 42/42/78 38/38/78
f 12/39/79 38/38/79 42/42/79
f 42/42/80 37/36/80 10/31/80
