# Blender v2.59 (sub 0) OBJ File: ''
# www.blender.org
mtllib sphere_pbox.mtl
o Icosphere.001
v 0.000000 -1.038632 0.000000
v 0.751554 -0.464492 0.546029
v -0.287062 -0.464492 0.883502
v -0.928978 -0.464492 0.000000
v -0.287062 -0.464492 -0.883502
v 0.751554 -0.464492 -0.546029
v 0.287062 0.464492 0.883502
v -0.751554 0.464492 0.546029
v -0.751554 0.464492 -0.546029
v 0.287062 0.464492 -0.883502
v 0.928978 0.464492 0.000000
v 0.000000 1.038632 0.000000
v -0.168731 -0.883517 0.519311
v 0.441754 -0.883516 0.320949
v 0.273024 -0.546048 0.840265
v 0.441754 -0.883516 -0.320949
v 0.883510 -0.546046 0.000000
v -0.546040 -0.883514 0.000000
v -0.714775 -0.546046 0.519313
v -0.168731 -0.883517 -0.519311
v -0.714775 -0.546046 -0.519313
v 0.273024 -0.546048 -0.840265
v 0.987799 0.000000 -0.320950
v 0.987799 0.000000 0.320950
v 0.610493 0.000000 0.840270
v 0.000000 0.000000 1.038632
v -0.610493 0.000000 0.840270
v -0.987799 0.000000 0.320950
v -0.987799 0.000000 -0.320950
v -0.610493 0.000000 -0.840270
v 0.000000 0.000000 -1.038632
v 0.610493 0.000000 -0.840270
v 0.714775 0.546046 0.519313
v -0.273024 0.546048 0.840265
v -0.883510 0.546046 0.000000
v -0.273024 0.546048 -0.840265
v 0.714775 0.546046 -0.519313
v 0.546040 0.883514 0.000000
v 0.168731 0.883517 0.519311
v -0.441754 0.883516 0.320949
v -0.441754 0.883516 -0.320949
v 0.168731 0.883517 -0.519311
vt 0.577628 0.295223
vt 0.476714 0.290236
vt 0.465354 0.242506
vt 0.562695 0.276397
vt 0.642321 0.347896
vt 0.451310 0.258207
vt 0.619427 0.378456
vt 0.507153 0.325738
vt 0.547827 0.431839
vt 0.364580 0.289727
vt 0.279866 0.338545
vt 0.349649 0.270901
vt 0.274710 0.369563
vt 0.323819 0.426061
vt 0.375483 0.322342
vt 0.432215 0.424400
vt 0.669421 0.460359
vt 0.613879 0.509700
vt 0.632882 0.571181
vt 0.546245 0.375026
vt 0.643588 0.408918
vt 0.588929 0.483665
vt 0.298869 0.400026
vt 0.414574 0.371630
vt 0.364920 0.477887
vt 0.269160 0.500808
vt 0.243326 0.449367
vt 0.270426 0.561830
vt 0.498174 0.538096
vt 0.366503 0.534699
vt 0.436033 0.619489
vt 0.638038 0.540163
vt 0.480533 0.485326
vt 0.293321 0.531270
vt 0.335120 0.614503
vt 0.548167 0.619999
vt 0.537264 0.587384
vt 0.563099 0.638824
vt 0.461437 0.651519
vt 0.405595 0.583988
vt 0.350053 0.633329
vt 0.447394 0.667220
vn 0.262856 -0.525712 0.808985
vn -0.276376 -0.447218 0.850642
vn -0.162450 -0.850642 0.499985
vn 0.425306 -0.850642 0.309000
vn 0.723594 -0.447188 0.525712
vn 0.000000 -1.000000 0.000000
vn 0.850642 -0.525712 0.000000
vn 0.425306 -0.850642 -0.309000
vn 0.723594 -0.447188 -0.525712
vn -0.688162 -0.525712 0.499985
vn -0.894406 -0.447188 0.000000
vn -0.525712 -0.850642 0.000000
vn -0.688162 -0.525712 -0.499985
vn -0.276376 -0.447218 -0.850642
vn -0.162450 -0.850642 -0.499985
vn 0.262856 -0.525712 -0.808985
vn 0.951048 0.000000 0.309000
vn 0.951048 0.000000 -0.309000
vn 0.894406 0.447188 0.000000
vn 0.000000 0.000000 1.000000
vn 0.587756 0.000000 0.809015
vn 0.276376 0.447218 0.850642
vn -0.951048 0.000000 0.309000
vn -0.587756 0.000000 0.809015
vn -0.723594 0.447188 0.525712
vn -0.587756 0.000000 -0.809015
vn -0.951048 0.000000 -0.309000
vn -0.723594 0.447188 -0.525712
vn 0.587756 0.000000 -0.809015
vn 0.000000 0.000000 -1.000000
vn 0.276376 0.447218 -0.850642
vn 0.688162 0.525712 0.499985
vn -0.262856 0.525712 0.808985
vn -0.850642 0.525712 0.000000
vn -0.262856 0.525712 -0.808985
vn 0.688162 0.525712 -0.499985
vn 0.162450 0.850642 0.499985
vn 0.525712 0.850642 0.000000
vn 0.000000 1.000000 0.000000
vn -0.425306 0.850642 0.309000
vn -0.425306 0.850642 -0.309000
vn 0.162450 0.850642 -0.499985
usemtl 
s 1
f 15/1/1 3/2/2 13/3/3
f 13/3/3 14/4/4 15/1/1
f 2/5/5 15/1/1 14/4/4
f 13/3/3 1/6/6 14/4/4
f 17/7/7 2/5/5 14/4/4
f 14/4/4 16/8/8 17/7/7
f 6/9/9 17/7/7 16/8/8
f 14/4/4 1/6/6 16/8/8
f 19/10/10 4/11/11 18/12/12
f 18/12/12 13/3/3 19/10/10
f 3/2/2 19/10/10 13/3/3
f 18/12/12 1/6/6 13/3/3
f 21/13/13 5/14/14 20/15/15
f 20/15/15 18/12/12 21/13/13
f 4/11/11 21/13/13 18/12/12
f 20/15/15 1/6/6 18/12/12
f 22/16/16 6/9/9 16/8/8
f 16/8/8 20/15/15 22/16/16
f 5/14/14 22/16/16 20/15/15
f 16/8/8 1/6/6 20/15/15
f 24/17/17 2/5/5 17/7/7
f 17/7/7 23/18/18 24/17/17
f 11/19/19 24/17/17 23/18/18
f 23/18/18 17/7/7 6/9/9
f 26/20/20 3/2/2 15/1/1
f 15/1/1 25/21/21 26/20/20
f 7/22/22 26/20/20 25/21/21
f 25/21/21 15/1/1 2/5/5
f 28/23/23 4/11/11 19/10/10
f 19/10/10 27/24/24 28/23/23
f 8/25/25 28/23/23 27/24/24
f 27/24/24 19/10/10 3/2/2
f 30/26/26 5/14/14 21/13/13
f 21/13/13 29/27/27 30/26/26
f 9/28/28 30/26/26 29/27/27
f 29/27/27 21/13/13 4/11/11
f 32/29/29 6/9/9 22/16/16
f 22/16/16 31/30/30 32/29/29
f 10/31/31 32/29/29 31/30/30
f 31/30/30 22/16/16 5/14/14
f 33/32/32 7/22/22 25/21/21
f 25/21/21 24/17/17 33/32/32
f 11/19/19 33/32/32 24/17/17
f 24/17/17 25/21/21 2/5/5
f 34/33/33 8/25/25 27/24/24
f 27/24/24 26/20/20 34/33/33
f 7/22/22 34/33/33 26/20/20
f 26/20/20 27/24/24 3/2/2
f 35/34/34 9/28/28 29/27/27
f 29/27/27 28/23/23 35/34/34
f 8/25/25 35/34/34 28/23/23
f 28/23/23 29/27/27 4/11/11
f 36/35/35 10/31/31 31/30/30
f 31/30/30 30/26/26 36/35/35
f 9/28/28 36/35/35 30/26/26
f 30/26/26 31/30/30 5/14/14
f 37/36/36 11/19/19 23/18/18
f 23/18/18 32/29/29 37/36/36
f 10/31/31 37/36/36 32/29/29
f 32/29/29 23/18/18 6/9/9
f 39/37/37 7/22/22 33/32/32
f 33/32/32 38/38/38 39/37/37
f 12/39/39 39/37/37 38/38/38
f 38/38/38 33/32/32 11/19/19
f 40/40/40 8/25/25 34/33/33
f 34/33/33 39/37/37 40/40/40
f 12/39/39 40/40/40 39/37/37
f 39/37/37 34/33/33 7/22/22
f 41/41/41 9/28/28 35/34/34
f 35/34/34 40/40/40 41/41/41
f 12/39/39 41/41/41 40/40/40
f 40/40/40 35/34/34 8/25/25
f 42/42/42 10/31/31 36/35/35
f 36/35/35 41/41/41 42/42/42
f 12/39/39 42/42/42 41/41/41
f 41/41/41 36/35/35 9/28/28
f 38/38/38 11/19/19 37/36/36
f 37/36/36 42/42/42 38/38/38
f 12/39/39 38/38/38 42/42/42
f 42/42/42 37/36/36 10/31/31
