# Blender v2.59 (sub 0) OBJ File: ''
# www.blender.org
mtllib sphere.mtl
o Icosphere
v 0.000000 -1.000000 0.000000
v 0.723600 -0.447215 0.525720
v -0.276385 -0.447215 0.850640
v -0.894425 -0.447215 0.000000
v -0.276385 -0.447215 -0.850640
v 0.723600 -0.447215 -0.525720
v 0.276385 0.447215 0.850640
v -0.723600 0.447215 0.525720
v -0.723600 0.447215 -0.525720
v 0.276385 0.447215 -0.850640
v 0.894425 0.447215 0.000000
v 0.000000 1.000000 0.000000
v -0.162456 -0.850654 0.499995
v 0.425323 -0.850654 0.309011
v 0.262869 -0.525738 0.809012
v 0.425323 -0.850654 -0.309011
v 0.850648 -0.525736 0.000000
v -0.525730 -0.850652 0.000000
v -0.688189 -0.525736 0.499997
v -0.162456 -0.850654 -0.499995
v -0.688189 -0.525736 -0.499997
v 0.262869 -0.525738 -0.809012
v 0.951058 0.000000 -0.309013
v 0.951058 0.000000 0.309013
v 0.587786 0.000000 0.809017
v 0.000000 0.000000 1.000000
v -0.587786 0.000000 0.809017
v -0.951058 0.000000 0.309013
v -0.951058 0.000000 -0.309013
v -0.587786 0.000000 -0.809017
v 0.000000 0.000000 -1.000000
v 0.587786 0.000000 -0.809017
v 0.688189 0.525736 0.499997
v -0.262869 0.525738 0.809012
v -0.850648 0.525736 0.000000
v -0.262869 0.525738 -0.809012
v 0.688189 0.525736 -0.499997
v 0.525730 0.850652 0.000000
v 0.162456 0.850654 0.499995
v -0.425323 0.850654 0.309011
v -0.425323 0.850654 -0.309011
v 0.162456 0.850654 -0.499995
v -0.084442 -0.961939 0.259889
v -0.228103 -0.674615 0.702042
v 0.221076 -0.961939 0.160619
v 0.597194 -0.674615 0.433882
v -0.007026 -0.505728 0.862665
v 0.512753 -0.505727 0.693775
v 0.221076 -0.961939 -0.160619
v 0.597194 -0.674615 -0.433882
v 0.818272 -0.505726 0.273262
v 0.818272 -0.505726 -0.273262
v -0.273266 -0.961939 0.000000
v -0.738174 -0.674610 0.000000
v -0.501373 -0.505727 0.702043
v -0.822618 -0.505724 0.259890
v -0.084442 -0.961939 -0.259889
v -0.228103 -0.674615 -0.702042
v -0.822618 -0.505724 -0.259890
v -0.501373 -0.505727 -0.702043
v 0.512753 -0.505727 -0.693775
v -0.007026 -0.505728 -0.862665
v 0.959253 0.232455 -0.160620
v 0.870465 -0.232456 -0.433883
v 0.870465 -0.232456 0.433883
v 0.959253 0.232455 0.160620
v 0.681641 -0.232457 0.693779
v 0.449185 0.232457 0.862668
v -0.143661 -0.232456 0.961938
v 0.143661 0.232456 0.961938
v -0.449185 -0.232457 0.862668
v -0.681641 0.232457 0.693779
v -0.959253 -0.232455 0.160620
v -0.870465 0.232456 0.433883
v -0.959253 -0.232455 -0.160620
v -0.870465 0.232456 -0.433883
v -0.681641 0.232457 -0.693779
v -0.449185 -0.232457 -0.862668
v 0.143661 0.232456 -0.961938
v -0.143661 -0.232456 -0.961938
v 0.449185 0.232457 -0.862668
v 0.681641 -0.232457 -0.693779
v 0.501373 0.505727 0.702043
v 0.822618 0.505724 0.259890
v 0.007026 0.505728 0.862665
v -0.512753 0.505727 0.693775
v -0.818272 0.505726 0.273262
v -0.818272 0.505726 -0.273262
v -0.512753 0.505727 -0.693775
v 0.007026 0.505728 -0.862665
v 0.501373 0.505727 -0.702043
v 0.822618 0.505724 -0.259890
v 0.738174 0.674610 0.000000
v 0.273266 0.961939 0.000000
v 0.228103 0.674615 0.702042
v 0.084442 0.961939 0.259889
v -0.597194 0.674615 0.433882
v -0.221076 0.961939 0.160619
v -0.597194 0.674615 -0.433882
v -0.221076 0.961939 -0.160619
v 0.228103 0.674615 -0.702042
v 0.084442 0.961939 -0.259889
v 0.052790 -0.723612 0.688185
v 0.138197 -0.894430 0.425320
v 0.361804 -0.723612 0.587779
v 0.670817 -0.723611 0.162457
v 0.447210 -0.894429 0.000000
v 0.670817 -0.723611 -0.162457
v -0.638195 -0.723609 0.262864
v -0.361800 -0.894429 0.262863
v -0.447211 -0.723611 0.525727
v -0.447211 -0.723611 -0.525727
v -0.361800 -0.894429 -0.262863
v -0.638195 -0.723609 -0.262864
v 0.361804 -0.723612 -0.587779
v 0.138197 -0.894430 -0.425320
v 0.052790 -0.723612 -0.688185
v 0.947213 -0.276396 0.162458
v 0.947213 -0.276396 -0.162458
v 1.000000 0.000000 0.000000
v 0.138199 -0.276397 0.951055
v 0.447216 -0.276397 0.850648
v 0.309017 0.000000 0.951056
v -0.861804 -0.276396 0.425322
v -0.670820 -0.276396 0.688190
v -0.809018 0.000000 0.587783
v -0.670820 -0.276396 -0.688190
v -0.861804 -0.276396 -0.425322
v -0.809018 0.000000 -0.587783
v 0.447216 -0.276397 -0.850648
v 0.138199 -0.276397 -0.951055
v 0.309017 0.000000 -0.951056
v 0.670820 0.276396 0.688190
v 0.809018 0.000000 0.587783
v 0.861804 0.276396 0.425322
v -0.447216 0.276397 0.850648
v -0.309017 0.000000 0.951056
v -0.138199 0.276397 0.951055
v -0.947213 0.276396 -0.162458
v -1.000000 0.000000 0.000000
v -0.947213 0.276396 0.162458
v -0.138199 0.276397 -0.951055
v -0.309017 0.000000 -0.951056
v -0.447216 0.276397 -0.850648
v 0.861804 0.276396 -0.425322
v 0.809018 0.000000 -0.587783
v 0.670820 0.276396 -0.688190
v 0.447211 0.723612 0.525727
v 0.638195 0.723609 0.262864
v 0.361800 0.894429 0.262863
v -0.361803 0.723612 0.587779
v -0.052790 0.723612 0.688185
v -0.138197 0.894430 0.425319
v -0.670817 0.723611 -0.162457
v -0.670817 0.723611 0.162457
v -0.447210 0.894429 0.000000
v -0.052790 0.723612 -0.688185
v -0.361803 0.723612 -0.587779
v -0.138197 0.894430 -0.425319
v 0.638195 0.723609 -0.262864
v 0.447211 0.723612 -0.525727
v 0.361800 0.894429 -0.262863
vt 0.826445 0.315691
vt 0.875095 0.314023
vt 0.851039 0.353068
vt 0.800274 0.348895
vt 0.782427 0.313665
vt 0.820391 0.388605
vt 0.802954 0.277054
vt 0.848036 0.273558
vt 0.820684 0.239009
vt 0.859705 0.232922
vt 0.903688 0.226060
vt 0.892740 0.271693
vt 0.784687 0.244625
vt 0.765962 0.281165
vt 0.750178 0.250008
vt 0.836214 0.197771
vt 0.849662 0.150987
vt 0.879362 0.185931
vt 0.792208 0.208173
vt 0.802815 0.164217
vt 0.761505 0.179554
vt 0.767774 0.140562
vt 0.774841 0.096611
vt 0.814857 0.121124
vt 0.755722 0.215525
vt 0.711278 0.342840
vt 0.727898 0.388593
vt 0.683329 0.377781
vt 0.671611 0.328211
vt 0.699602 0.300350
vt 0.640061 0.359615
vt 0.740765 0.308559
vt 0.758021 0.350354
vt 0.773609 0.392294
vt 0.725424 0.274648
vt 0.649869 0.241699
vt 0.611491 0.271644
vt 0.608002 0.225916
vt 0.651525 0.199453
vt 0.686672 0.217464
vt 0.611909 0.179151
vt 0.691584 0.259149
vt 0.657166 0.288477
vt 0.622096 0.316263
vt 0.719095 0.234080
vt 0.727085 0.152041
vt 0.686745 0.124794
vt 0.729158 0.107346
vt 0.723379 0.197107
vt 0.684851 0.173436
vt 0.647588 0.148668
vt 0.905458 0.140705
vt 0.975927 0.135752
vt 0.939007 0.187334
vt 0.860204 0.095239
vt 0.929637 0.071384
vt 0.865487 0.024794
vt 0.449124 0.252189
vt 0.403688 0.226061
vt 0.439007 0.187335
vt 0.500000 0.211037
vt 0.500000 0.290077
vt 0.475927 0.135752
vt 0.813732 0.061473
vt 0.902115 0.363911
vt 0.928602 0.429400
vt 0.868136 0.410227
vt 0.931371 0.306822
vt 0.975514 0.365485
vt 1.000000 0.290077
vt 0.313726 0.061471
vt 0.274835 0.096610
vt 0.248918 0.051053
vt 0.290308 0.000368
vt 0.365482 0.024792
vt 0.211267 0.000000
vt 0.949124 0.252190
vt 0.688801 0.429708
vt 0.634703 0.475136
vt 0.634251 0.411704
vt 0.752138 0.439890
vt 0.709987 0.500001
vt 0.789271 0.499985
vt 0.090503 0.131310
vt 0.111905 0.179155
vt 0.060569 0.189727
vt 0.025154 0.134701
vt 0.071611 0.070753
vt 0.000381 0.209760
vt 0.809582 0.439891
vt 0.560306 0.247166
vt 0.500384 0.209754
vt 0.560572 0.189722
vt 0.570195 0.310550
vt 0.500000 0.289038
vt 0.524516 0.364438
vt 0.087944 0.365184
vt 0.140060 0.359615
vt 0.134250 0.411705
vt 0.070976 0.428381
vt 0.024516 0.364438
vt 0.134703 0.475137
vt 0.587945 0.365184
vt 0.694209 0.068551
vt 0.711273 0.000000
vt 0.748924 0.051053
vt 0.636983 0.097541
vt 0.635751 0.024135
vt 0.571617 0.070750
vt 0.309580 0.439892
vt 0.320389 0.388606
vt 0.368134 0.410229
vt 0.364440 0.475560
vt 0.289270 0.499985
vt 0.428601 0.429401
vt 0.590508 0.131305
vt 0.360201 0.095238
vt 0.349659 0.150987
vt 0.314853 0.121123
vt 0.429635 0.071383
vt 0.405457 0.140705
vt 0.379361 0.185931
vt 1.000000 0.211037
vt 0.136977 0.097544
vt 0.186740 0.124796
vt 0.147583 0.148671
vt 0.135744 0.024136
vt 0.194203 0.068552
vt 0.229152 0.107347
vt 0.864442 0.475559
vt 0.070194 0.310552
vt 0.111489 0.271647
vt 0.122095 0.316264
vt 0.000000 0.289042
vt 0.060305 0.247170
vt 0.107999 0.225919
vt 0.570976 0.428381
vt 0.252136 0.439891
vt 0.227896 0.388594
vt 0.273607 0.392295
vt 0.209986 0.500001
vt 0.188800 0.429708
vt 0.183328 0.377781
vt 0.525158 0.134696
vt 0.431371 0.306822
vt 0.375093 0.314024
vt 0.392740 0.271693
vt 0.475514 0.365485
vt 0.402114 0.363912
vt 0.351037 0.353069
vt 0.790314 0.000369
vt 0.302812 0.164217
vt 0.261502 0.179554
vt 0.267770 0.140562
vt 0.336212 0.197772
vt 0.292206 0.208174
vt 0.320683 0.239010
vt 0.284685 0.244626
vt 0.250176 0.250009
vt 0.255719 0.215526
vt 0.359704 0.232922
vt 0.184847 0.173439
vt 0.186669 0.217466
vt 0.151522 0.199456
vt 0.227080 0.152042
vt 0.223375 0.197109
vt 0.219093 0.234081
vt 0.157165 0.288478
vt 0.199600 0.300351
vt 0.171610 0.328211
vt 0.149867 0.241701
vt 0.191582 0.259151
vt 0.225422 0.274649
vt 0.258019 0.350355
vt 0.282424 0.313666
vt 0.300272 0.348896
vt 0.211276 0.342841
vt 0.240763 0.308560
vt 0.265960 0.281166
vt 0.348035 0.273558
vt 0.326443 0.315692
vt 0.302952 0.277055
vn 0.060305 -0.728202 0.682669
vn 0.262856 -0.525712 0.808985
vn -0.009033 -0.505417 0.862819
vn -0.228523 -0.673086 0.703330
vn -0.162450 -0.850642 0.499985
vn -0.276376 -0.447218 0.850642
vn 0.141057 -0.889706 0.434126
vn 0.352458 -0.728202 0.587725
vn 0.425306 -0.850642 0.309000
vn 0.598285 -0.673086 0.434675
vn 0.723594 -0.447218 0.525712
vn 0.514481 -0.505417 0.692709
vn 0.219459 -0.962493 0.159459
vn -0.083834 -0.962493 0.258003
vn 0.000000 -1.000000 0.000000
vn 0.667898 -0.728202 0.153600
vn 0.850642 -0.525712 0.000000
vn 0.817774 -0.505417 0.275216
vn 0.456465 -0.889706 0.000000
vn 0.667898 -0.728202 -0.153600
vn 0.425306 -0.850642 -0.309000
vn 0.598285 -0.673086 -0.434675
vn 0.723594 -0.447218 -0.525712
vn 0.817774 -0.505417 -0.275216
vn 0.219459 -0.962493 -0.159459
vn -0.630634 -0.728202 0.268288
vn -0.688162 -0.525712 0.499985
vn -0.823359 -0.505417 0.258003
vn -0.739525 -0.673086 0.000000
vn -0.525712 -0.850642 0.000000
vn -0.894406 -0.447188 0.000000
vn -0.369274 -0.889706 0.268288
vn -0.450056 -0.728202 0.516831
vn -0.499802 -0.505417 0.703330
vn -0.271279 -0.962493 0.000000
vn -0.450056 -0.728202 -0.516831
vn -0.688162 -0.525712 -0.499985
vn -0.499802 -0.505417 -0.703330
vn -0.228523 -0.673086 -0.703330
vn -0.162450 -0.850642 -0.499985
vn -0.276376 -0.447218 -0.850642
vn -0.369274 -0.889706 -0.268288
vn -0.630634 -0.728202 -0.268288
vn -0.823359 -0.505417 -0.258003
vn -0.083834 -0.962493 -0.258003
vn 0.352458 -0.728202 -0.587725
vn 0.262856 -0.525712 -0.808985
vn 0.514481 -0.505417 -0.692709
vn 0.141057 -0.889706 -0.434126
vn 0.060305 -0.728202 -0.682669
vn -0.009033 -0.505417 -0.862819
vn 0.950011 -0.271706 0.153600
vn 0.951048 0.000000 0.309000
vn 0.869594 -0.234107 0.434675
vn 0.950011 -0.271706 -0.153600
vn 0.999939 -0.010376 0.000000
vn 0.951048 0.000000 -0.309000
vn 0.959014 0.234107 -0.159459
vn 0.894406 0.447188 0.000000
vn 0.959014 0.234107 0.159459
vn 0.869594 -0.234107 -0.434675
vn 0.147465 -0.271706 0.950987
vn 0.000000 0.000000 1.000000
vn -0.144688 -0.234107 0.961364
vn 0.439650 -0.271706 0.856044
vn 0.309000 -0.010376 0.950987
vn 0.587756 0.000000 0.809015
vn 0.448012 0.234107 0.862819
vn 0.276376 0.447218 0.850642
vn 0.144688 0.234107 0.961364
vn 0.682150 -0.234107 0.692709
vn -0.858882 -0.271706 0.434126
vn -0.951048 0.000000 0.309000
vn -0.959014 -0.234107 0.159459
vn -0.678304 -0.271706 0.682669
vn -0.808954 -0.010376 0.587725
vn -0.587756 0.000000 0.809015
vn -0.682150 0.234107 0.692709
vn -0.723594 0.447218 0.525712
vn -0.869594 0.234107 0.434675
vn -0.448012 -0.234107 0.862819
vn -0.678304 -0.271706 -0.682669
vn -0.587756 0.000000 -0.809015
vn -0.448012 -0.234107 -0.862819
vn -0.858882 -0.271706 -0.434126
vn -0.808954 -0.010376 -0.587725
vn -0.951048 0.000000 -0.309000
vn -0.869594 0.234107 -0.434675
vn -0.723594 0.447218 -0.525712
vn -0.682150 0.234107 -0.692709
vn -0.959014 -0.234107 -0.159459
vn 0.439650 -0.271706 -0.856044
vn 0.587756 0.000000 -0.809015
vn 0.682150 -0.234107 -0.692709
vn 0.147465 -0.271706 -0.950987
vn 0.309000 -0.010376 -0.950987
vn 0.000000 0.000000 -1.000000
vn 0.144688 0.234107 -0.961364
vn 0.276376 0.447218 -0.850642
vn 0.448012 0.234107 -0.862819
vn -0.144688 -0.234107 -0.961364
vn 0.678304 0.271706 0.682669
vn 0.688162 0.525712 0.499985
vn 0.499802 0.505417 0.703330
vn 0.808954 0.010376 0.587725
vn 0.858882 0.271706 0.434126
vn 0.823359 0.505417 0.258003
vn -0.439650 0.271706 0.856044
vn -0.262856 0.525712 0.808985
vn -0.514481 0.505417 0.692709
vn -0.309000 0.010376 0.950987
vn -0.147465 0.271706 0.950987
vn 0.009033 0.505417 0.862819
vn -0.950011 0.271706 -0.153600
vn -0.850642 0.525712 0.000000
vn -0.817774 0.505417 -0.275216
vn -0.999939 0.010376 0.000000
vn -0.950011 0.271706 0.153600
vn -0.817774 0.505417 0.275216
vn -0.147465 0.271706 -0.950987
vn -0.262856 0.525712 -0.808985
vn 0.009033 0.505417 -0.862819
vn -0.309000 0.010376 -0.950987
vn -0.439650 0.271706 -0.856044
vn -0.514481 0.505417 -0.692709
vn 0.858882 0.271706 -0.434126
vn 0.688162 0.525712 -0.499985
vn 0.823359 0.505417 -0.258003
vn 0.808954 0.010376 -0.587725
vn 0.678304 0.271706 -0.682669
vn 0.499802 0.505417 -0.703330
vn 0.450056 0.728202 0.516831
vn 0.162450 0.850642 0.499985
vn 0.228523 0.673086 0.703330
vn 0.630634 0.728202 0.268288
vn 0.369274 0.889706 0.268288
vn 0.525712 0.850642 0.000000
vn 0.271279 0.962493 0.000000
vn 0.000000 1.000000 0.000000
vn 0.083834 0.962493 0.258003
vn 0.739525 0.673086 0.000000
vn -0.352458 0.728202 0.587725
vn -0.425306 0.850642 0.309000
vn -0.598285 0.673086 0.434675
vn -0.060305 0.728202 0.682669
vn -0.141057 0.889706 0.434126
vn -0.219459 0.962493 0.159459
vn -0.667898 0.728202 -0.153600
vn -0.425306 0.850642 -0.309000
vn -0.598285 0.673086 -0.434675
vn -0.667898 0.728202 0.153600
vn -0.456465 0.889706 0.000000
vn -0.219459 0.962493 -0.159459
vn -0.060305 0.728202 -0.682669
vn 0.162450 0.850642 -0.499985
vn 0.228523 0.673086 -0.703330
vn -0.352458 0.728202 -0.587725
vn -0.141057 0.889706 -0.434126
vn 0.083834 0.962493 -0.258003
vn 0.630634 0.728202 -0.268288
vn 0.450056 0.728202 -0.516831
vn 0.369274 0.889706 -0.268288
usemtl 
s 1
f 103/1/1 15/2/2 47/3/3
f 47/3/3 44/4/4 103/1/1
f 13/5/5 103/1/1 44/4/4
f 44/4/4 47/3/3 3/6/6
f 103/1/1 13/5/5 104/7/7
f 104/7/7 105/8/8 103/1/1
f 15/2/2 103/1/1 105/8/8
f 105/8/8 104/7/7 14/9/9
f 46/10/10 2/11/11 48/12/12
f 48/12/12 105/8/8 46/10/10
f 14/9/9 46/10/10 105/8/8
f 105/8/8 48/12/12 15/2/2
f 45/13/13 14/9/9 104/7/7
f 104/7/7 43/14/14 45/13/13
f 1/15/15 45/13/13 43/14/14
f 43/14/14 104/7/7 13/5/5
f 106/16/16 17/17/17 51/18/18
f 51/18/18 46/10/10 106/16/16
f 14/9/9 106/16/16 46/10/10
f 46/10/10 51/18/18 2/11/11
f 106/16/16 14/9/9 107/19/19
f 107/19/19 108/20/20 106/16/16
f 17/17/17 106/16/16 108/20/20
f 108/20/20 107/19/19 16/21/21
f 50/22/22 6/23/23 52/24/24
f 52/24/24 108/20/20 50/22/22
f 16/21/21 50/22/22 108/20/20
f 108/20/20 52/24/24 17/17/17
f 49/25/25 16/21/21 107/19/19
f 107/19/19 45/13/13 49/25/25
f 1/15/15 49/25/25 45/13/13
f 45/13/13 107/19/19 14/9/9
f 109/26/26 19/27/27 56/28/28
f 56/28/28 54/29/29 109/26/26
f 18/30/30 109/26/26 54/29/29
f 54/29/29 56/28/28 4/31/31
f 109/26/26 18/30/30 110/32/32
f 110/32/32 111/33/33 109/26/26
f 19/27/27 109/26/26 111/33/33
f 111/33/33 110/32/32 13/5/5
f 44/4/4 3/6/6 55/34/34
f 55/34/34 111/33/33 44/4/4
f 13/5/5 44/4/4 111/33/33
f 111/33/33 55/34/34 19/27/27
f 43/14/14 13/5/5 110/32/32
f 110/32/32 53/35/35 43/14/14
f 1/15/15 43/14/14 53/35/35
f 53/35/35 110/32/32 18/30/30
f 112/36/36 21/37/37 60/38/38
f 60/38/38 58/39/39 112/36/36
f 20/40/40 112/36/36 58/39/39
f 58/39/39 60/38/38 5/41/41
f 112/36/36 20/40/40 113/42/42
f 113/42/42 114/43/43 112/36/36
f 21/37/37 112/36/36 114/43/43
f 114/43/43 113/42/42 18/30/30
f 54/29/29 4/31/31 59/44/44
f 59/44/44 114/43/43 54/29/29
f 18/30/30 54/29/29 114/43/43
f 114/43/43 59/44/44 21/37/37
f 53/35/35 18/30/30 113/42/42
f 113/42/42 57/45/45 53/35/35
f 1/15/15 53/35/35 57/45/45
f 57/45/45 113/42/42 20/40/40
f 115/46/46 22/47/47 61/48/48
f 61/48/48 50/22/22 115/46/46
f 16/21/21 115/46/46 50/22/22
f 50/22/22 61/48/48 6/23/23
f 115/46/46 16/21/21 116/49/49
f 116/49/49 117/50/50 115/46/46
f 22/47/47 115/46/46 117/50/50
f 117/50/50 116/49/49 20/40/40
f 58/39/39 5/41/41 62/51/51
f 62/51/51 117/50/50 58/39/39
f 20/40/40 58/39/39 117/50/50
f 117/50/50 62/51/51 22/47/47
f 57/45/45 20/40/40 116/49/49
f 116/49/49 49/25/25 57/45/45
f 1/15/15 57/45/45 49/25/25
f 49/25/25 116/49/49 16/21/21
f 118/52/52 24/53/53 65/54/54
f 65/54/54 51/18/18 118/52/52
f 17/17/17 118/52/52 51/18/18
f 51/18/18 65/54/54 2/11/11
f 118/52/52 17/17/17 119/55/55
f 119/55/55 120/56/56 118/52/52
f 24/53/53 118/52/52 120/56/56
f 120/56/56 119/55/55 23/57/57
f 63/58/58 11/59/59 66/60/60
f 66/60/60 120/61/56 63/58/58
f 23/62/57 63/58/58 120/61/56
f 120/61/56 66/60/60 24/63/53
f 64/64/61 23/57/57 119/55/55
f 119/55/55 52/24/24 64/64/61
f 6/23/23 64/64/61 52/24/24
f 52/24/24 119/55/55 17/17/17
f 121/65/62 26/66/63 69/67/64
f 69/67/64 47/3/3 121/65/62
f 15/2/2 121/65/62 47/3/3
f 47/3/3 69/67/64 3/6/6
f 121/65/62 15/2/2 122/68/65
f 122/68/65 123/69/66 121/65/62
f 26/66/63 121/65/62 123/69/66
f 123/69/66 122/68/65 25/70/67
f 68/71/68 7/72/69 70/73/70
f 70/73/70 123/74/66 68/71/68
f 25/75/67 68/71/68 123/74/66
f 123/74/66 70/73/70 26/76/63
f 67/77/71 25/70/67 122/68/65
f 122/68/65 48/12/12 67/77/71
f 2/11/11 67/77/71 48/12/12
f 48/12/12 122/68/65 15/2/2
f 124/78/72 28/79/73 73/80/74
f 73/80/74 56/28/28 124/78/72
f 19/27/27 124/78/72 56/28/28
f 56/28/28 73/80/74 4/31/31
f 124/78/72 19/27/27 125/81/75
f 125/81/75 126/82/76 124/78/72
f 28/79/73 124/78/72 126/82/76
f 126/82/76 125/81/75 27/83/77
f 72/84/78 8/85/79 74/86/80
f 74/86/80 126/87/76 72/84/78
f 27/88/77 72/84/78 126/87/76
f 126/87/76 74/86/80 28/89/73
f 71/90/81 27/83/77 125/81/75
f 125/81/75 55/34/34 71/90/81
f 3/6/6 71/90/81 55/34/34
f 55/34/34 125/81/75 19/27/27
f 127/91/82 30/92/83 78/93/84
f 78/93/84 60/38/38 127/91/82
f 21/37/37 127/91/82 60/38/38
f 60/38/38 78/93/84 5/41/41
f 127/91/82 21/37/37 128/94/85
f 128/94/85 129/95/86 127/91/82
f 30/92/83 127/91/82 129/95/86
f 129/95/86 128/94/85 29/96/87
f 76/97/88 9/98/89 77/99/90
f 77/99/90 129/100/86 76/97/88
f 29/101/87 76/97/88 129/100/86
f 129/100/86 77/99/90 30/102/83
f 75/103/91 29/96/87 128/94/85
f 128/94/85 59/44/44 75/103/91
f 4/31/31 75/103/91 59/44/44
f 59/44/44 128/94/85 21/37/37
f 130/104/92 32/105/93 82/106/94
f 82/106/94 61/48/48 130/104/92
f 22/47/47 130/104/92 61/48/48
f 61/48/48 82/106/94 6/23/23
f 130/104/92 22/47/47 131/107/95
f 131/107/95 132/108/96 130/104/92
f 32/105/93 130/104/92 132/108/96
f 132/108/96 131/107/95 31/109/97
f 79/110/98 10/111/99 81/112/100
f 81/112/100 132/113/96 79/110/98
f 31/114/97 79/110/98 132/113/96
f 132/113/96 81/112/100 32/115/93
f 80/116/101 31/109/97 131/107/95
f 131/107/95 62/51/51 80/116/101
f 5/41/41 80/116/101 62/51/51
f 62/51/51 131/107/95 22/47/47
f 133/117/102 33/118/103 83/119/104
f 83/119/104 68/71/68 133/117/102
f 25/75/67 133/117/102 68/71/68
f 68/71/68 83/119/104 7/72/69
f 133/117/102 25/75/67 134/120/105
f 134/120/105 135/121/106 133/117/102
f 33/118/103 133/117/102 135/121/106
f 135/121/106 134/120/105 24/63/53
f 66/60/60 11/59/59 84/122/107
f 84/122/107 135/121/106 66/60/60
f 24/63/53 66/60/60 135/121/106
f 135/121/106 84/122/107 33/118/103
f 65/54/54 24/53/53 134/123/105
f 134/123/105 67/77/71 65/54/54
f 2/11/11 65/54/54 67/77/71
f 67/77/71 134/123/105 25/70/67
f 136/124/108 34/125/109 86/126/110
f 86/126/110 72/84/78 136/124/108
f 27/88/77 136/124/108 72/84/78
f 72/84/78 86/126/110 8/85/79
f 136/124/108 27/88/77 137/127/111
f 137/127/111 138/128/112 136/124/108
f 34/125/109 136/124/108 138/128/112
f 138/128/112 137/127/111 26/76/63
f 70/73/70 7/72/69 85/129/113
f 85/129/113 138/128/112 70/73/70
f 26/76/63 70/73/70 138/128/112
f 138/128/112 85/129/113 34/125/109
f 69/67/64 26/66/63 137/130/111
f 137/130/111 71/90/81 69/67/64
f 3/6/6 69/67/64 71/90/81
f 71/90/81 137/130/111 27/83/77
f 139/131/114 35/132/115 88/133/116
f 88/133/116 76/97/88 139/131/114
f 29/101/87 139/131/114 76/97/88
f 76/97/88 88/133/116 9/98/89
f 139/131/114 29/101/87 140/134/117
f 140/134/117 141/135/118 139/131/114
f 35/132/115 139/131/114 141/135/118
f 141/135/118 140/134/117 28/89/73
f 74/86/80 8/85/79 87/136/119
f 87/136/119 141/135/118 74/86/80
f 28/89/73 74/86/80 141/135/118
f 141/135/118 87/136/119 35/132/115
f 73/80/74 28/79/73 140/137/117
f 140/137/117 75/103/91 73/80/74
f 4/31/31 73/80/74 75/103/91
f 75/103/91 140/137/117 29/96/87
f 142/138/120 36/139/121 90/140/122
f 90/140/122 79/110/98 142/138/120
f 31/114/97 142/138/120 79/110/98
f 79/110/98 90/140/122 10/111/99
f 142/138/120 31/114/97 143/141/123
f 143/141/123 144/142/124 142/138/120
f 36/139/121 142/138/120 144/142/124
f 144/142/124 143/141/123 30/102/83
f 77/99/90 9/98/89 89/143/125
f 89/143/125 144/142/124 77/99/90
f 30/102/83 77/99/90 144/142/124
f 144/142/124 89/143/125 36/139/121
f 78/93/84 30/92/83 143/144/123
f 143/144/123 80/116/101 78/93/84
f 5/41/41 78/93/84 80/116/101
f 80/116/101 143/144/123 31/109/97
f 145/145/126 37/146/127 92/147/128
f 92/147/128 63/58/58 145/145/126
f 23/62/57 145/145/126 63/58/58
f 63/58/58 92/147/128 11/59/59
f 145/145/126 23/62/57 146/148/129
f 146/148/129 147/149/130 145/145/126
f 37/146/127 145/145/126 147/149/130
f 147/149/130 146/148/129 32/115/93
f 81/112/100 10/111/99 91/150/131
f 91/150/131 147/149/130 81/112/100
f 32/115/93 81/112/100 147/149/130
f 147/149/130 91/150/131 37/146/127
f 82/106/94 32/105/93 146/151/129
f 146/151/129 64/64/61 82/106/94
f 6/23/23 82/106/94 64/64/61
f 64/64/61 146/151/129 23/57/57
f 148/152/132 39/153/133 95/154/134
f 95/154/134 83/119/104 148/152/132
f 33/118/103 148/152/132 83/119/104
f 83/119/104 95/154/134 7/72/69
f 148/152/132 33/118/103 149/155/135
f 149/155/135 150/156/136 148/152/132
f 39/153/133 148/152/132 150/156/136
f 150/156/136 149/155/135 38/157/137
f 94/158/138 12/159/139 96/160/140
f 96/160/140 150/156/136 94/158/138
f 38/157/137 94/158/138 150/156/136
f 150/156/136 96/160/140 39/153/133
f 93/161/141 38/157/137 149/155/135
f 149/155/135 84/122/107 93/161/141
f 11/59/59 93/161/141 84/122/107
f 84/122/107 149/155/135 33/118/103
f 151/162/142 40/163/143 97/164/144
f 97/164/144 86/126/110 151/162/142
f 34/125/109 151/162/142 86/126/110
f 86/126/110 97/164/144 8/85/79
f 151/162/142 34/125/109 152/165/145
f 152/165/145 153/166/146 151/162/142
f 40/163/143 151/162/142 153/166/146
f 153/166/146 152/165/145 39/153/133
f 96/160/140 12/159/139 98/167/147
f 98/167/147 153/166/146 96/160/140
f 39/153/133 96/160/140 153/166/146
f 153/166/146 98/167/147 40/163/143
f 95/154/134 39/153/133 152/165/145
f 152/165/145 85/129/113 95/154/134
f 7/72/69 95/154/134 85/129/113
f 85/129/113 152/165/145 34/125/109
f 154/168/148 41/169/149 99/170/150
f 99/170/150 88/133/116 154/168/148
f 35/132/115 154/168/148 88/133/116
f 88/133/116 99/170/150 9/98/89
f 154/168/148 35/132/115 155/171/151
f 155/171/151 156/172/152 154/168/148
f 41/169/149 154/168/148 156/172/152
f 156/172/152 155/171/151 40/163/143
f 98/167/147 12/159/139 100/173/153
f 100/173/153 156/172/152 98/167/147
f 40/163/143 98/167/147 156/172/152
f 156/172/152 100/173/153 41/169/149
f 97/164/144 40/163/143 155/171/151
f 155/171/151 87/136/119 97/164/144
f 8/85/79 97/164/144 87/136/119
f 87/136/119 155/171/151 35/132/115
f 157/174/154 42/175/155 101/176/156
f 101/176/156 90/140/122 157/174/154
f 36/139/121 157/174/154 90/140/122
f 90/140/122 101/176/156 10/111/99
f 157/174/154 36/139/121 158/177/157
f 158/177/157 159/178/158 157/174/154
f 42/175/155 157/174/154 159/178/158
f 159/178/158 158/177/157 41/169/149
f 100/173/153 12/159/139 102/179/159
f 102/179/159 159/178/158 100/173/153
f 41/169/149 100/173/153 159/178/158
f 159/178/158 102/179/159 42/175/155
f 99/170/150 41/169/149 158/177/157
f 158/177/157 89/143/125 99/170/150
f 9/98/89 99/170/150 89/143/125
f 89/143/125 158/177/157 36/139/121
f 160/180/160 38/157/137 93/161/141
f 93/161/141 92/147/128 160/180/160
f 37/146/127 160/180/160 92/147/128
f 92/147/128 93/161/141 11/59/59
f 160/180/160 37/146/127 161/181/161
f 161/181/161 162/182/162 160/180/160
f 38/157/137 160/180/160 162/182/162
f 162/182/162 161/181/161 42/175/155
f 102/179/159 12/159/139 94/158/138
f 94/158/138 162/182/162 102/179/159
f 42/175/155 102/179/159 162/182/162
f 162/182/162 94/158/138 38/157/137
f 101/176/156 42/175/155 161/181/161
f 161/181/161 91/150/131 101/176/156
f 10/111/99 101/176/156 91/150/131
f 91/150/131 161/181/161 37/146/127
