# Blender v2.59 (sub 0) OBJ File: 'spotlight.blend'
# www.blender.org
mtllib spotlight_pbox.mtl
o Cylinder.006_Cylinder.007
v 0.000000 -0.550814 -0.360352
v 0.254807 -0.550814 -0.254807
v 0.360352 -0.550814 0.000000
v 0.254807 -0.550814 0.254807
v -0.000000 -0.550814 0.360352
v -0.254807 -0.550814 0.254807
v -0.360352 -0.550814 -0.000000
v -0.254807 -0.550814 -0.254807
v -0.000000 0.556432 -0.519742
v 0.367513 0.556432 -0.367513
v 0.519742 0.556432 -0.000000
v 0.367513 0.556432 0.367513
v -0.000000 0.556432 0.519742
v -0.367513 0.556432 0.367513
v -0.519742 0.556432 -0.000000
v -0.367513 0.556432 -0.367513
v 0.000000 -0.550814 0.000000
v 0.000000 0.556432 0.000000
v 0.367513 0.288087 -0.367513
v -0.000000 0.288087 -0.519742
v 0.519742 0.288087 -0.000000
v 0.367513 0.288087 0.367513
v -0.000000 0.288087 0.519742
v -0.367513 0.288087 0.367513
v -0.519742 0.288087 -0.000000
v -0.367513 0.288087 -0.367513
vt 0.502301 0.220392
vt 0.365184 0.174384
vt 0.382103 0.244799
vt 0.401116 0.562067
vt 0.227753 0.597269
vt 0.203350 0.495708
vt 0.469433 0.300916
vt 0.353709 0.678209
vt 0.576016 0.309864
vt 0.507436 0.691114
vt 0.639419 0.266400
vt 0.598883 0.628426
vt 0.622500 0.195985
vt 0.574480 0.526865
vt 0.535170 0.139868
vt 0.448523 0.445925
vt 0.428587 0.130920
vt 0.294796 0.433020
vt 0.227873 0.412902
vt 0.252275 0.514463
vt 0.378232 0.595403
vt 0.531959 0.608308
vt 0.623405 0.545619
vt 0.599003 0.444059
vt 0.473046 0.363119
vt 0.319319 0.350214
vn -0.000000 -1.000000 0.000000
vn 0.000000 1.000000 -0.000000
vn 0.376920 -0.172892 -0.909967
vn 0.382683 0.000000 -0.923880
vn 0.909967 -0.172892 -0.376921
vn 0.923879 0.000000 -0.382684
vn 0.909967 -0.172892 0.376920
vn 0.923880 0.000000 0.382683
vn 0.376921 -0.172892 0.909967
vn 0.382684 0.000000 0.923880
vn -0.376921 -0.172892 0.909967
vn -0.382684 0.000000 0.923880
vn -0.909967 -0.172892 0.376920
vn -0.923880 0.000000 0.382683
vn -0.909967 -0.172892 -0.376921
vn -0.923879 0.000000 -0.382684
vn -0.382683 -0.000000 -0.923880
vn -0.376920 -0.172892 -0.909967
usemtl _untitled.001
s off
f 17/1/1 1/2/1 2/3/1
f 18/4/2 10/5/2 9/6/2
f 17/1/1 2/3/1 3/7/1
f 18/4/2 11/8/2 10/5/2
f 17/1/1 3/7/1 4/9/1
f 18/4/2 12/10/2 11/8/2
f 17/1/1 4/9/1 5/11/1
f 18/4/2 13/12/2 12/10/2
f 17/1/1 5/11/1 6/13/1
f 18/4/2 14/14/2 13/12/2
f 17/1/1 6/13/1 7/15/1
f 18/4/2 15/16/2 14/14/2
f 17/1/1 7/15/1 8/17/1
f 18/4/2 16/18/2 15/16/2
f 8/17/1 1/2/1 17/1/1
f 18/4/2 9/6/2 16/18/2
f 1/2/3 20/19/3 19/20/3
f 1/2/3 19/20/3 2/3/3
f 20/19/4 9/6/4 10/5/4
f 20/19/4 10/5/4 19/20/4
f 2/3/5 19/20/5 21/21/5
f 2/3/5 21/21/5 3/7/5
f 19/20/6 10/5/6 11/8/6
f 19/20/6 11/8/6 21/21/6
f 3/7/7 21/21/7 22/22/7
f 3/7/7 22/22/7 4/9/7
f 21/21/8 11/8/8 12/10/8
f 21/21/8 12/10/8 22/22/8
f 4/9/9 22/22/9 23/23/9
f 4/9/9 23/23/9 5/11/9
f 22/22/10 12/10/10 13/12/10
f 22/22/10 13/12/10 23/23/10
f 5/11/11 23/23/11 24/24/11
f 5/11/11 24/24/11 6/13/11
f 23/23/12 13/12/12 14/14/12
f 23/23/12 14/14/12 24/24/12
f 6/13/13 24/24/13 25/25/13
f 6/13/13 25/25/13 7/15/13
f 24/24/14 14/14/14 15/16/14
f 24/24/14 15/16/14 25/25/14
f 7/15/15 25/25/15 26/26/15
f 7/15/15 26/26/15 8/17/15
f 25/25/16 15/16/16 16/18/16
f 25/25/16 16/18/16 26/26/16
f 9/6/17 20/19/17 26/26/17
f 9/6/17 26/26/17 16/18/17
f 20/19/18 1/2/18 8/17/18
f 20/19/18 8/17/18 26/26/18
