# Blender v2.59 (sub 0) OBJ File: 'spotlight.blend'
# www.blender.org
mtllib spotlight.mtl
o Cylinder.004
v 0.000000 0.556312 -0.510426
v 0.195332 0.556312 -0.471572
v 0.360926 0.556312 -0.360925
v 0.471572 0.556312 -0.195331
v 0.510426 0.556312 0.000001
v 0.471571 0.556312 0.195332
v 0.360925 0.556312 0.360926
v 0.195331 0.556312 0.471572
v -0.000001 0.556312 0.510426
v -0.195332 0.556312 0.471571
v -0.360926 0.556312 0.360925
v -0.471572 0.556312 0.195330
v -0.510426 0.556312 -0.000001
v -0.471571 0.556312 -0.195333
v -0.360924 0.556312 -0.360926
v -0.195330 0.556312 -0.471572
v 0.000000 0.518361 0.000000
v -0.125819 0.518361 -0.303756
v -0.232484 0.518361 -0.232485
v -0.303756 0.518361 -0.125821
v -0.328783 0.518361 -0.000001
v -0.303756 0.518361 0.125819
v -0.232485 0.518361 0.232484
v -0.125821 0.518361 0.303756
v -0.000001 0.518361 0.328783
v 0.125819 0.518361 0.303756
v 0.232484 0.518361 0.232485
v 0.303756 0.518361 0.125820
v 0.328783 0.518361 0.000000
v 0.303756 0.518361 -0.125820
v 0.232485 0.518361 -0.232485
v 0.125820 0.518361 -0.303756
v 0.000000 0.518361 -0.328783
v 0.195332 0.293193 -0.471572
v 0.000000 0.293193 -0.510426
v 0.360926 0.293193 -0.360925
v 0.471572 0.293193 -0.195331
v 0.510426 0.293193 0.000000
v 0.471572 0.293193 0.195332
v 0.360925 0.293193 0.360926
v 0.195331 0.293193 0.471572
v -0.000001 0.293193 0.510426
v -0.195332 0.293193 0.471571
v -0.360926 0.293193 0.360925
v -0.471572 0.293193 0.195331
v -0.510426 0.293193 -0.000001
v -0.471571 0.293193 -0.195332
v -0.360925 0.293193 -0.360926
v -0.195330 0.293193 -0.471572
v -0.165819 0.197322 -0.400324
v -0.306394 0.197322 -0.306395
v -0.400323 0.197322 -0.165820
v -0.433307 0.197322 -0.000001
v -0.400324 0.197322 0.165819
v -0.306395 0.197322 0.306394
v -0.165820 0.197322 0.400323
v -0.000001 0.197322 0.433307
v 0.165819 0.197322 0.400324
v 0.306394 0.197322 0.306395
v 0.400323 0.197322 0.165820
v 0.433307 0.197322 0.000000
v 0.400324 0.197322 -0.165819
v 0.306395 0.197322 -0.306394
v 0.000000 0.197322 -0.433307
v 0.165820 0.197322 -0.400324
v -0.165819 0.016836 -0.400324
v -0.306394 0.016836 -0.306395
v -0.400324 0.016836 -0.165820
v -0.433307 0.016836 -0.000000
v -0.400324 0.016836 0.165820
v -0.306394 0.016836 0.306395
v -0.165819 0.016836 0.400324
v 0.000000 0.016836 0.433307
v 0.165819 0.016836 0.400324
v 0.306394 0.016836 0.306394
v 0.400324 0.016836 0.165820
v 0.433307 0.016836 0.000000
v 0.400324 0.016836 -0.165819
v 0.306394 0.016836 -0.306394
v 0.165819 0.016836 -0.400324
v 0.000000 0.016836 -0.433307
v 0.000000 -0.077898 -0.367456
v 0.140619 -0.077898 -0.339485
v 0.259831 -0.077898 -0.259831
v 0.339485 -0.077898 -0.140619
v 0.367456 -0.077898 0.000000
v 0.339485 -0.077898 0.140619
v 0.259831 -0.077898 0.259831
v 0.140619 -0.077898 0.339485
v 0.000000 -0.077898 0.367456
v -0.140619 -0.077898 0.339485
v -0.259831 -0.077898 0.259831
v -0.339485 -0.077898 0.140619
v -0.367456 -0.077898 -0.000000
v -0.339485 -0.077898 -0.140619
v -0.259830 -0.077898 -0.259831
v -0.140619 -0.077898 -0.339485
v -0.140619 -0.458416 -0.339485
v -0.259830 -0.458416 -0.259831
v -0.339485 -0.458416 -0.140619
v -0.367456 -0.458416 -0.000000
v -0.339485 -0.458416 0.140619
v -0.259831 -0.458416 0.259831
v -0.140619 -0.458416 0.339485
v 0.000000 -0.458416 0.367456
v 0.140619 -0.458416 0.339485
v 0.259831 -0.458416 0.259831
v 0.339485 -0.458416 0.140619
v 0.367456 -0.458416 0.000000
v 0.339485 -0.458416 -0.140619
v 0.259831 -0.458416 -0.259831
v 0.140619 -0.458416 -0.339485
v 0.000000 -0.458416 -0.367456
v 0.000000 -0.556312 -0.232827
v 0.089099 -0.556312 -0.215104
v 0.164633 -0.556312 -0.164633
v 0.215104 -0.556312 -0.089099
v 0.232827 -0.556312 0.000000
v 0.215104 -0.556312 0.089099
v 0.164633 -0.556312 0.164633
v 0.089099 -0.556312 0.215104
v 0.000000 -0.556312 0.232827
v -0.089099 -0.556312 0.215104
v -0.164633 -0.556312 0.164633
v -0.215104 -0.556312 0.089099
v -0.232827 -0.556312 -0.000000
v -0.215104 -0.556312 -0.089099
v -0.164633 -0.556312 -0.164633
v -0.089099 -0.556312 -0.215104
v 0.000000 -0.556312 0.000000
v 0.000000 0.556312 -0.510426
v -0.195330 0.556312 -0.471572
v -0.360924 0.556312 -0.360926
v -0.471571 0.556312 -0.195333
v -0.510426 0.556312 -0.000001
v -0.471572 0.556312 0.195330
v -0.360926 0.556312 0.360925
v -0.195332 0.556312 0.471571
v -0.000001 0.556312 0.510426
v 0.195331 0.556312 0.471572
v 0.360925 0.556312 0.360926
v 0.471571 0.556312 0.195332
v 0.510426 0.556312 0.000001
v 0.471572 0.556312 -0.195331
v 0.360926 0.556312 -0.360925
v 0.195332 0.556312 -0.471572
v 0.140619 -0.458416 -0.339485
v 0.259831 -0.458416 -0.259831
v 0.339485 -0.458416 -0.140619
v 0.367456 -0.458416 0.000000
v 0.339485 -0.458416 0.140619
v 0.259831 -0.458416 0.259831
v 0.140619 -0.458416 0.339485
v 0.000000 -0.458416 0.367456
v -0.140619 -0.458416 0.339485
v -0.259831 -0.458416 0.259831
v -0.339485 -0.458416 0.140619
v -0.367456 -0.458416 -0.000000
v -0.339485 -0.458416 -0.140619
v -0.259830 -0.458416 -0.259831
v -0.140619 -0.458416 -0.339485
v 0.000000 -0.458416 -0.367456
vt 0.740197 0.754843
vt 0.819326 0.873221
vt 0.768004 0.894534
vt 0.858704 0.833991
vt 0.879932 0.782612
vt 0.879887 0.727030
vt 0.858547 0.675724
vt 0.819299 0.636387
vt 0.767964 0.615073
vt 0.712380 0.615134
vt 0.661050 0.636430
vt 0.621776 0.675743
vt 0.600564 0.727094
vt 0.600457 0.782667
vt 0.621763 0.834004
vt 0.661074 0.873293
vt 0.712426 0.894553
vt 0.317350 0.682607
vt 0.334662 0.593315
vt 0.367155 0.607321
vt 0.392413 0.631961
vt 0.406251 0.664499
vt 0.406628 0.699921
vt 0.392604 0.732400
vt 0.367953 0.757626
vt 0.335419 0.771397
vt 0.300058 0.771664
vt 0.267204 0.758450
vt 0.242531 0.733109
vt 0.228570 0.700700
vt 0.228110 0.665307
vt 0.242085 0.632820
vt 0.266706 0.607552
vt 0.299239 0.593705
vt 0.347817 0.527836
vt 0.404846 0.551188
vt 0.448677 0.595008
vt 0.472128 0.651927
vt 0.472114 0.713110
vt 0.448728 0.770156
vt 0.404836 0.813995
vt 0.347791 0.837399
vt 0.286429 0.837197
vt 0.230060 0.813815
vt 0.186406 0.770546
vt 0.162677 0.713514
vt 0.162582 0.652249
vt 0.185908 0.595164
vt 0.229727 0.551301
vt 0.286643 0.527836
vt 0.960341 0.183793
vt 0.902351 0.183793
vt 0.902351 0.035867
vt 0.960341 0.035867
vt 0.090487 0.183793
vt 0.032497 0.183793
vt 0.032497 0.035867
vt 0.090487 0.035867
vt 0.148478 0.183793
vt 0.148478 0.035867
vt 0.206468 0.183793
vt 0.206468 0.035867
vt 0.264458 0.183793
vt 0.264458 0.035867
vt 0.322448 0.183793
vt 0.322448 0.035867
vt 0.380439 0.183793
vt 0.380439 0.035867
vt 0.438429 0.183793
vt 0.438429 0.035867
vt 0.496419 0.183793
vt 0.496419 0.035867
vt 0.554410 0.183793
vt 0.554410 0.035867
vt 0.612400 0.183793
vt 0.612400 0.035867
vt 0.670390 0.183793
vt 0.670390 0.035867
vt 0.728380 0.183793
vt 0.728380 0.035867
vt 0.786371 0.183793
vt 0.786371 0.035867
vt 0.844361 0.183793
vt 0.844361 0.035867
vt 0.902351 0.261388
vt 0.844361 0.261388
vt 0.786371 0.261388
vt 0.728380 0.261388
vt 0.670390 0.261388
vt 0.612400 0.261388
vt 0.554410 0.261388
vt 0.496419 0.261388
vt 0.438429 0.261388
vt 0.380439 0.261388
vt 0.322448 0.261388
vt 0.264458 0.261388
vt 0.206468 0.261388
vt 0.148478 0.261388
vt 0.090487 0.261388
vt 0.032497 0.261388
vt 0.960341 0.261388
vt 0.902351 0.339631
vt 0.960341 0.339631
vt 0.090487 0.339631
vt 0.032497 0.339631
vt 0.148477 0.339631
vt 0.206468 0.339631
vt 0.264458 0.339631
vt 0.322448 0.339631
vt 0.380438 0.339631
vt 0.438429 0.339631
vt 0.496419 0.339631
vt 0.554409 0.339631
vt 0.612400 0.339631
vt 0.670390 0.339631
vt 0.728380 0.339631
vt 0.786371 0.339631
vt 0.844361 0.339631
vt 0.902351 0.399573
vt 0.844361 0.399573
vt 0.786371 0.399573
vt 0.728380 0.399573
vt 0.670390 0.399573
vt 0.612400 0.399573
vt 0.554409 0.399573
vt 0.496419 0.399573
vt 0.438429 0.399573
vt 0.380438 0.399573
vt 0.322448 0.399573
vt 0.264458 0.399573
vt 0.206468 0.399573
vt 0.148477 0.399573
vt 0.090487 0.399573
vt 0.032497 0.399573
vt 0.960341 0.399573
vt 0.902351 0.510031
vt 0.960341 0.510031
vt 0.090487 0.510032
vt 0.032497 0.510031
vt 0.148477 0.510032
vt 0.206467 0.510032
vt 0.264458 0.510032
vt 0.322448 0.510032
vt 0.380438 0.510032
vt 0.438429 0.510032
vt 0.496419 0.510032
vt 0.554409 0.510032
vt 0.612400 0.510032
vt 0.670390 0.510031
vt 0.728380 0.510031
vt 0.786370 0.510031
vt 0.844361 0.510031
vt 0.864145 0.940378
vt 0.783628 0.973704
vt 0.925712 0.878806
vt 0.959019 0.798433
vt 0.959047 0.711363
vt 0.925685 0.630844
vt 0.864033 0.569282
vt 0.783663 0.536062
vt 0.696735 0.536066
vt 0.616348 0.569319
vt 0.554764 0.630835
vt 0.521410 0.711305
vt 0.521410 0.798346
vt 0.554666 0.878701
vt 0.616150 0.940270
vt 0.696545 0.973644
vn 0.000000 1.000000 0.000000
vn -0.044191 0.993286 0.106693
vn 0.000000 0.993286 0.115482
vn -0.081637 0.993286 0.081637
vn -0.106693 0.993286 0.044191
vn -0.115482 0.993286 0.000000
vn -0.106693 0.993286 -0.044191
vn -0.081637 0.993286 -0.081637
vn -0.044191 0.993286 -0.106693
vn 0.000000 0.993286 -0.115482
vn 0.044191 0.993286 -0.106693
vn 0.081637 0.993286 -0.081637
vn 0.106693 0.993286 -0.044191
vn 0.115482 0.993286 0.000000
vn 0.106693 0.993286 0.044191
vn 0.081637 0.993286 0.081637
vn 0.044191 0.993286 0.106693
vn 0.000000 -1.000000 0.000000
vn 0.000000 -0.939207 -0.343272
vn 0.131352 -0.939207 -0.317148
vn 0.242744 -0.939207 -0.242744
vn 0.317148 -0.939207 -0.131352
vn 0.343272 -0.939207 0.000000
vn 0.317148 -0.939207 0.131352
vn 0.242744 -0.939207 0.242744
vn 0.131352 -0.939207 0.317148
vn 0.000000 -0.939207 0.343272
vn -0.131352 -0.939207 0.317148
vn -0.242744 -0.939207 0.242744
vn -0.317148 -0.939207 0.131352
vn -0.343272 -0.939207 0.000000
vn -0.317148 -0.939207 -0.131352
vn -0.242744 -0.939207 -0.242744
vn -0.131352 -0.939207 -0.317148
vn 0.000000 -0.808771 -0.588092
vn 0.225043 -0.808771 -0.543321
vn 0.415845 -0.808771 -0.415845
vn 0.543321 -0.808771 -0.225043
vn 0.588092 -0.808771 0.000000
vn 0.543321 -0.808771 0.225043
vn 0.415845 -0.808771 0.415845
vn 0.225043 -0.808771 0.543321
vn 0.000000 -0.808771 0.588092
vn -0.225043 -0.808771 0.543321
vn -0.415845 -0.808771 0.415845
vn -0.543321 -0.808771 0.225043
vn -0.588092 -0.808771 0.000000
vn -0.543321 -0.808771 -0.225043
vn -0.415845 -0.808771 -0.415845
vn -0.225043 -0.808771 -0.543321
vn -0.363781 -0.310221 -0.878292
vn 0.000000 -0.310221 -0.950652
vn 0.000000 0.000000 -1.000000
vn -0.382672 0.000000 -0.923856
vn -0.672201 -0.310221 -0.672201
vn -0.707083 0.000000 -0.707083
vn -0.878292 -0.310221 -0.363781
vn -0.923856 0.000000 -0.382672
vn -0.950652 -0.310221 0.000000
vn -1.000000 0.000000 0.000000
vn -0.878292 -0.310221 0.363781
vn -0.923856 0.000000 0.382672
vn -0.672201 -0.310221 0.672201
vn -0.707083 0.000000 0.707083
vn -0.363781 -0.310221 0.878292
vn -0.382672 0.000000 0.923856
vn 0.000000 -0.310221 0.950652
vn 0.000000 0.000000 0.999969
vn 0.363781 -0.310221 0.878292
vn 0.382672 0.000000 0.923856
vn 0.672201 -0.310221 0.672201
vn 0.707083 0.000000 0.707083
vn 0.878292 -0.310221 0.363781
vn 0.923856 0.000000 0.382672
vn 0.950652 -0.310221 0.000000
vn 1.000000 0.000000 0.000000
vn 0.878292 -0.310221 -0.363781
vn 0.923856 0.000000 -0.382672
vn 0.672201 -0.310221 -0.672201
vn 0.707083 0.000000 -0.707083
vn 0.363781 -0.310221 -0.878292
vn 0.382672 0.000000 -0.923856
vn 0.000000 -0.288949 -0.957335
vn 0.366344 -0.288949 -0.884457
vn 0.676931 -0.288949 -0.676931
vn 0.884457 -0.288949 -0.366344
vn 0.957335 -0.288949 0.000000
vn 0.884457 -0.288949 0.366344
vn 0.676931 -0.288949 0.676931
vn 0.366344 -0.288949 0.884457
vn 0.000000 -0.288949 0.957335
vn -0.366344 -0.288949 0.884457
vn -0.676931 -0.288949 0.676931
vn -0.884457 -0.288949 0.366344
vn -0.957335 -0.288949 0.000000
vn -0.884457 -0.288949 -0.366344
vn -0.676931 -0.288949 -0.676931
vn -0.366344 -0.288949 -0.884457
vn 0.000000 -0.345958 -0.938231
vn -0.359050 -0.345958 -0.866817
vn -0.663411 -0.345958 -0.663442
vn -0.866817 -0.345958 -0.359050
vn -0.938231 -0.345958 0.000000
vn -0.866817 -0.345958 0.359050
vn -0.663442 -0.345958 0.663411
vn -0.359050 -0.345958 0.866817
vn 0.000000 -0.345958 0.938231
vn 0.359050 -0.345958 0.866817
vn 0.663411 -0.345958 0.663442
vn 0.866817 -0.345958 0.359050
vn 0.938231 -0.345958 0.000000
vn 0.866817 -0.345958 -0.359050
vn 0.663442 -0.345958 -0.663442
vn 0.359050 -0.345958 -0.866817
vn 0.000000 -0.319987 -0.947417
vn 0.362560 -0.319987 -0.875271
vn 0.669912 -0.319987 -0.669912
vn 0.875271 -0.319987 -0.362560
vn 0.947417 -0.319987 0.000000
vn 0.875271 -0.319987 0.362560
vn 0.669912 -0.319987 0.669912
vn 0.362560 -0.319987 0.875271
vn 0.000000 -0.319987 0.947417
vn -0.362560 -0.319987 0.875271
vn -0.669912 -0.319987 0.669912
vn -0.875271 -0.319987 0.362529
vn -0.947417 -0.319987 0.000000
vn -0.875271 -0.319987 -0.362560
vn -0.669912 -0.319987 -0.669912
vn -0.362529 -0.319987 -0.875271
vn 0.000000 0.000000 1.000000
vn -0.078249 0.978851 0.188940
vn 0.000000 0.978851 0.204505
vn -0.144597 0.978851 0.144597
vn -0.188940 0.978851 0.078249
vn -0.204505 0.978851 0.000000
vn -0.188940 0.978851 -0.078249
vn -0.144597 0.978851 -0.144597
vn -0.078249 0.978851 -0.188940
vn 0.000000 0.978851 -0.204505
vn 0.078249 0.978851 -0.188940
vn 0.144597 0.978851 -0.144597
vn 0.188940 0.978851 -0.078249
vn 0.204505 0.978851 0.000000
vn 0.188940 0.978851 0.078249
vn 0.144597 0.978851 0.144597
vn 0.078249 0.978851 0.188940
usemtl Material_untitled.001
s 1
f 17/1/1 32/2/2 33/3/3
f 17/1/1 31/4/4 32/2/2
f 17/1/1 30/5/5 31/4/4
f 17/1/1 29/6/6 30/5/5
f 17/1/1 28/7/7 29/6/6
f 17/1/1 27/8/8 28/7/7
f 17/1/1 26/9/9 27/8/8
f 17/1/1 25/10/10 26/9/9
f 17/1/1 24/11/11 25/10/10
f 17/1/1 23/12/12 24/11/11
f 17/1/1 22/13/13 23/12/12
f 17/1/1 21/14/14 22/13/13
f 17/1/1 20/15/15 21/14/14
f 17/1/1 19/16/16 20/15/15
f 17/1/1 18/17/17 19/16/16
f 17/1/1 33/3/3 18/17/17
f 130/18/18 114/19/19 115/20/20
f 130/18/18 115/20/20 116/21/21
f 130/18/18 116/21/21 117/22/22
f 130/18/18 117/22/22 118/23/23
f 130/18/18 118/23/23 119/24/24
f 130/18/18 119/24/24 120/25/25
f 130/18/18 120/25/25 121/26/26
f 130/18/18 121/26/26 122/27/27
f 130/18/18 122/27/27 123/28/28
f 130/18/18 123/28/28 124/29/29
f 130/18/18 124/29/29 125/30/30
f 130/18/18 125/30/30 126/31/31
f 130/18/18 126/31/31 127/32/32
f 130/18/18 127/32/32 128/33/33
f 130/18/18 128/33/33 129/34/34
f 129/34/34 114/19/19 130/18/18
f 113/35/35 112/36/36 115/20/20
f 113/35/35 115/20/20 114/19/19
f 112/36/36 111/37/37 116/21/21
f 112/36/36 116/21/21 115/20/20
f 111/37/37 110/38/38 117/22/22
f 111/37/37 117/22/22 116/21/21
f 110/38/38 109/39/39 118/23/23
f 110/38/38 118/23/23 117/22/22
f 109/39/39 108/40/40 119/24/24
f 109/39/39 119/24/24 118/23/23
f 108/40/40 107/41/41 120/25/25
f 108/40/40 120/25/25 119/24/24
f 107/41/41 106/42/42 121/26/26
f 107/41/41 121/26/26 120/25/25
f 106/42/42 105/43/43 122/27/27
f 106/42/42 122/27/27 121/26/26
f 105/43/43 104/44/44 123/28/28
f 105/43/43 123/28/28 122/27/27
f 104/44/44 103/45/45 124/29/29
f 104/44/44 124/29/29 123/28/28
f 103/45/45 102/46/46 125/30/30
f 103/45/45 125/30/30 124/29/29
f 102/46/46 101/47/47 126/31/31
f 102/46/46 126/31/31 125/30/30
f 101/47/47 100/48/48 127/32/32
f 101/47/47 127/32/32 126/31/31
f 100/48/48 99/49/49 128/33/33
f 100/48/48 128/33/33 127/32/32
f 99/49/49 98/50/50 129/34/34
f 99/49/49 129/34/34 128/33/33
f 98/50/50 113/35/35 114/19/19
f 98/50/50 114/19/19 129/34/34
f 97/51/51 82/52/52 162/53/53
f 97/51/51 162/53/53 161/54/54
f 96/55/55 97/56/51 161/57/54
f 96/55/55 161/57/54 160/58/56
f 95/59/57 96/55/55 160/58/56
f 95/59/57 160/58/56 159/60/58
f 94/61/59 95/59/57 159/60/58
f 94/61/59 159/60/58 158/62/60
f 93/63/61 94/61/59 158/62/60
f 93/63/61 158/62/60 157/64/62
f 92/65/63 93/63/61 157/64/62
f 92/65/63 157/64/62 156/66/64
f 91/67/65 92/65/63 156/66/64
f 91/67/65 156/66/64 155/68/66
f 90/69/67 91/67/65 155/68/66
f 90/69/67 155/68/66 154/70/68
f 89/71/69 90/69/67 154/70/68
f 89/71/69 154/70/68 153/72/70
f 88/73/71 89/71/69 153/72/70
f 88/73/71 153/72/70 152/74/72
f 87/75/73 88/73/71 152/74/72
f 87/75/73 152/74/72 151/76/74
f 86/77/75 87/75/73 151/76/74
f 86/77/75 151/76/74 150/78/76
f 85/79/77 86/77/75 150/78/76
f 85/79/77 150/78/76 149/80/78
f 84/81/79 85/79/77 149/80/78
f 84/81/79 149/80/78 148/82/80
f 83/83/81 84/81/79 148/82/80
f 83/83/81 148/82/80 147/84/82
f 82/52/52 83/83/81 147/84/82
f 82/52/52 147/84/82 162/53/53
f 81/85/83 80/86/84 83/83/81
f 81/85/83 83/83/81 82/52/52
f 80/86/84 79/87/85 84/81/79
f 80/86/84 84/81/79 83/83/81
f 79/87/85 78/88/86 85/79/77
f 79/87/85 85/79/77 84/81/79
f 78/88/86 77/89/87 86/77/75
f 78/88/86 86/77/75 85/79/77
f 77/89/87 76/90/88 87/75/73
f 77/89/87 87/75/73 86/77/75
f 76/90/88 75/91/89 88/73/71
f 76/90/88 88/73/71 87/75/73
f 75/91/89 74/92/90 89/71/69
f 75/91/89 89/71/69 88/73/71
f 74/92/90 73/93/91 90/69/67
f 74/92/90 90/69/67 89/71/69
f 73/93/91 72/94/92 91/67/65
f 73/93/91 91/67/65 90/69/67
f 72/94/92 71/95/93 92/65/63
f 72/94/92 92/65/63 91/67/65
f 71/95/93 70/96/94 93/63/61
f 71/95/93 93/63/61 92/65/63
f 70/96/94 69/97/95 94/61/59
f 70/96/94 94/61/59 93/63/61
f 69/97/95 68/98/96 95/59/57
f 69/97/95 95/59/57 94/61/59
f 68/98/96 67/99/97 96/55/55
f 68/98/96 96/55/55 95/59/57
f 67/99/97 66/100/98 97/56/51
f 67/99/97 97/56/51 96/55/55
f 66/101/98 81/85/83 82/52/52
f 66/101/98 82/52/52 97/51/51
f 64/102/99 81/85/83 50/103/100
f 81/85/83 66/101/98 50/103/100
f 67/99/97 51/104/101 66/100/98
f 51/104/101 50/105/100 66/100/98
f 68/98/96 52/106/102 67/99/97
f 52/106/102 51/104/101 67/99/97
f 69/97/95 53/107/103 68/98/96
f 53/107/103 52/106/102 68/98/96
f 70/96/94 54/108/104 69/97/95
f 54/108/104 53/107/103 69/97/95
f 71/95/93 55/109/105 70/96/94
f 55/109/105 54/108/104 70/96/94
f 72/94/92 56/110/106 71/95/93
f 56/110/106 55/109/105 71/95/93
f 73/93/91 57/111/107 72/94/92
f 57/111/107 56/110/106 72/94/92
f 74/92/90 58/112/108 73/93/91
f 58/112/108 57/111/107 73/93/91
f 75/91/89 59/113/109 74/92/90
f 59/113/109 58/112/108 74/92/90
f 76/90/88 60/114/110 75/91/89
f 60/114/110 59/113/109 75/91/89
f 77/89/87 61/115/111 76/90/88
f 61/115/111 60/114/110 76/90/88
f 78/88/86 62/116/112 77/89/87
f 62/116/112 61/115/111 77/89/87
f 79/87/85 63/117/113 78/88/86
f 63/117/113 62/116/112 78/88/86
f 80/86/84 65/118/114 79/87/85
f 65/118/114 63/117/113 79/87/85
f 81/85/83 64/102/99 80/86/84
f 64/102/99 65/118/114 80/86/84
f 35/119/115 34/120/116 65/118/114
f 35/119/115 65/118/114 64/102/99
f 34/120/116 36/121/117 63/117/113
f 34/120/116 63/117/113 65/118/114
f 36/121/117 37/122/118 62/116/112
f 36/121/117 62/116/112 63/117/113
f 37/122/118 38/123/119 61/115/111
f 37/122/118 61/115/111 62/116/112
f 38/123/119 39/124/120 60/114/110
f 38/123/119 60/114/110 61/115/111
f 39/124/120 40/125/121 59/113/109
f 39/124/120 59/113/109 60/114/110
f 40/125/121 41/126/122 58/112/108
f 40/125/121 58/112/108 59/113/109
f 41/126/122 42/127/123 57/111/107
f 41/126/122 57/111/107 58/112/108
f 42/127/123 43/128/124 56/110/106
f 42/127/123 56/110/106 57/111/107
f 43/128/124 44/129/125 55/109/105
f 43/128/124 55/109/105 56/110/106
f 44/129/125 45/130/126 54/108/104
f 44/129/125 54/108/104 55/109/105
f 45/130/126 46/131/127 53/107/103
f 45/130/126 53/107/103 54/108/104
f 46/131/127 47/132/128 52/106/102
f 46/131/127 52/106/102 53/107/103
f 47/132/128 48/133/129 51/104/101
f 47/132/128 51/104/101 52/106/102
f 48/133/129 49/134/130 50/105/100
f 48/133/129 50/105/100 51/104/101
f 49/135/130 35/119/115 64/102/99
f 49/135/130 64/102/99 50/103/100
f 1/136/53 35/119/115 16/137/54
f 35/119/115 49/135/130 16/137/54
f 48/133/129 15/138/56 49/134/130
f 15/138/56 16/139/54 49/134/130
f 47/132/128 14/140/58 48/133/129
f 14/140/58 15/138/56 48/133/129
f 46/131/127 13/141/60 47/132/128
f 13/141/60 14/140/58 47/132/128
f 45/130/126 12/142/62 46/131/127
f 12/142/62 13/141/60 46/131/127
f 44/129/125 11/143/64 45/130/126
f 11/143/64 12/142/62 45/130/126
f 43/128/124 10/144/66 44/129/125
f 10/144/66 11/143/64 44/129/125
f 42/127/123 9/145/131 43/128/124
f 9/145/131 10/144/66 43/128/124
f 41/126/122 8/146/70 42/127/123
f 8/146/70 9/145/131 42/127/123
f 40/125/121 7/147/72 41/126/122
f 7/147/72 8/146/70 41/126/122
f 39/124/120 6/148/74 40/125/121
f 6/148/74 7/147/72 40/125/121
f 38/123/119 5/149/76 39/124/120
f 5/149/76 6/148/74 39/124/120
f 37/122/118 4/150/78 38/123/119
f 4/150/78 5/149/76 38/123/119
f 36/121/117 3/151/80 37/122/118
f 3/151/80 4/150/78 37/122/118
f 34/120/116 2/152/82 36/121/117
f 2/152/82 3/151/80 36/121/117
f 35/119/115 1/136/53 34/120/116
f 1/136/53 2/152/82 34/120/116
f 146/153/132 131/154/133 33/3/3
f 146/153/132 33/3/3 32/2/2
f 145/155/134 146/153/132 32/2/2
f 145/155/134 32/2/2 31/4/4
f 144/156/135 145/155/134 31/4/4
f 144/156/135 31/4/4 30/5/5
f 143/157/136 144/156/135 30/5/5
f 143/157/136 30/5/5 29/6/6
f 142/158/137 143/157/136 29/6/6
f 142/158/137 29/6/6 28/7/7
f 141/159/138 142/158/137 28/7/7
f 141/159/138 28/7/7 27/8/8
f 140/160/139 141/159/138 27/8/8
f 140/160/139 27/8/8 26/9/9
f 139/161/140 140/160/139 26/9/9
f 139/161/140 26/9/9 25/10/10
f 138/162/141 139/161/140 25/10/10
f 138/162/141 25/10/10 24/11/11
f 137/163/142 138/162/141 24/11/11
f 137/163/142 24/11/11 23/12/12
f 136/164/143 137/163/142 23/12/12
f 136/164/143 23/12/12 22/13/13
f 135/165/144 136/164/143 22/13/13
f 135/165/144 22/13/13 21/14/14
f 134/166/145 135/165/144 21/14/14
f 134/166/145 21/14/14 20/15/15
f 133/167/146 134/166/145 20/15/15
f 133/167/146 20/15/15 19/16/16
f 132/168/147 133/167/146 19/16/16
f 132/168/147 19/16/16 18/17/17
f 131/154/133 132/168/147 18/17/17
f 131/154/133 18/17/17 33/3/3
