# Blender v2.63 (sub 0) OBJ File: ''
# www.blender.org
mtllib sprite_plane_2.mtl
o Mesh_Plane
v -1.000000 1.000000 0.000000
v 1.000000 1.000000 0.000000
v 1.000000 -1.000000 -0.000000
v -1.000000 -1.000000 -0.000000
v -1.000000 0.000000 0.000000
v 0.000000 -1.000000 -0.000000
v 0.000000 1.000000 0.000000
v 1.000000 0.000000 0.000000
v 0.000000 0.000000 0.000000
vt 0.000000 0.500000
vt 0.500000 0.500000
vt 0.500000 1.000000
vt 0.000000 1.000000
vt 0.000000 0.000000
vt 0.500000 0.000000
vt 1.000000 1.000000
vt 1.000000 0.500000
vt 1.000000 0.000000
vn 0.000000 0.000000 -1.000000
usemtl 
s off
f 8/1/1 9/2/1 7/3/1 2/4/1
f 3/5/1 6/6/1 9/2/1 8/1/1
f 1/7/1 7/3/1 9/2/1 5/8/1
f 6/6/1 4/9/1 5/8/1 9/2/1
