# Blender v2.59 (sub 0) OBJ File: 'stones.blend'
# www.blender.org
mtllib stones.mtl
o Cube.004_Cube.005
v 0.500000 -0.500000 -3.750000
v 0.500000 -0.500000 -2.750000
v -0.500000 -0.500000 -2.750000
v -0.500000 -0.500000 -3.750000
v 0.500000 0.500000 -3.750000
v 0.500000 0.500000 -2.750000
v -0.500000 0.500000 -2.750000
v -0.500000 0.500000 -3.750000
v -1.000000 1.000000 1.750000
v -1.000000 1.000000 3.750000
v 0.999999 1.000000 3.750000
v 1.000000 1.000000 1.750000
v -1.000000 -1.000000 1.749999
v -1.000000 -1.000000 3.750000
v 1.000000 -1.000000 3.750000
v 1.000000 -1.000000 1.750000
vt 0.465055 0.594205
vt 0.464220 0.556724
vt 0.426900 0.571618
vt 0.427735 0.609099
vt 0.490628 0.614718
vt 0.453308 0.629612
vt 0.452473 0.592131
vt 0.489793 0.577237
vt 0.517483 0.411383
vt 0.466338 0.370357
vt 0.391698 0.400145
vt 0.442843 0.441171
vt 0.390029 0.325183
vt 0.441174 0.366209
vt 0.464669 0.295395
vt 0.515814 0.336421
vn 0.000000 -1.000000 0.000000
vn 0.000000 1.000000 0.000000
vn 1.000000 0.000000 0.000000
vn -0.000000 0.000000 1.000000
vn -1.000000 -0.000000 -0.000000
vn 0.000000 0.000000 -1.000000
usemtl 
s off
f 1/1/1 2/2/1 3/3/1
f 1/1/1 3/3/1 4/4/1
f 5/5/2 8/6/2 7/7/2
f 5/5/2 7/7/2 6/8/2
f 1/1/3 5/5/3 6/8/3
f 1/1/3 6/8/3 2/2/3
f 2/2/4 6/8/4 7/7/4
f 2/2/4 7/7/4 3/3/4
f 3/3/5 7/7/5 8/6/5
f 3/3/5 8/6/5 4/4/5
f 5/5/6 1/1/6 4/4/6
f 5/5/6 4/4/6 8/6/6
f 12/9/6 16/10/6 13/11/6
f 12/9/6 13/11/6 9/12/6
f 14/13/5 10/14/5 9/12/5
f 14/13/5 9/12/5 13/11/5
f 15/15/4 11/16/4 10/14/4
f 15/15/4 10/14/4 14/13/4
f 16/10/3 12/9/3 11/16/3
f 16/10/3 11/16/3 15/15/3
f 12/9/2 9/12/2 10/14/2
f 12/9/2 10/14/2 11/16/2
f 16/10/1 15/15/1 14/13/1
f 16/10/1 14/13/1 13/11/1
