# Blender v2.59 (sub 0) OBJ File: 'temple_pillar.blend'
# www.blender.org
mtllib temple_pillar_pbox.mtl
o Cube.001
v 0.400000 0.006185 -0.400000
v 0.400000 0.006185 0.400000
v -0.400000 0.006185 0.400000
v -0.400000 0.006185 -0.400000
v 0.400000 4.106185 -0.400000
v 0.400000 4.106185 0.400000
v -0.400000 4.106185 0.400000
v -0.400000 4.106185 -0.400000
vt 0.461059 0.364986
vt 0.486363 0.333688
vt 0.436160 0.323655
vt 0.410856 0.354953
vt 0.493148 0.600941
vt 0.442944 0.590908
vt 0.468248 0.559610
vt 0.518452 0.569643
vn 0.577349 -0.577349 -0.577349
vn 0.577349 -0.577349 0.577349
vn -0.577349 -0.577349 0.577349
vn -0.577349 -0.577349 -0.577349
vn 0.577349 0.577349 -0.577349
vn -0.577349 0.577349 -0.577349
vn -0.577349 0.577349 0.577349
vn 0.577349 0.577349 0.577349
usemtl _untitled
s 1
f 1/1/1 2/2/2 3/3/3
f 1/1/1 3/3/3 4/4/4
f 5/5/5 8/6/6 7/7/7
f 5/5/5 7/7/7 6/8/8
f 1/1/1 5/5/5 6/8/8
f 1/1/1 6/8/8 2/2/2
f 2/2/2 6/8/8 7/7/7
f 2/2/2 7/7/7 3/3/3
f 3/3/3 7/7/7 8/6/6
f 3/3/3 8/6/6 4/4/4
f 5/5/5 1/1/1 4/4/4
f 5/5/5 4/4/4 8/6/6
